<svg width="38" height="38" viewBox="0 0 38 38" fill="none" xmlns="http://www.w3.org/2000/svg">
<rect width="38" height="38" rx="15.2381" fill="#ECECF8"/>
<path d="M27.2388 15.9641V24.8732C27.2388 25.5001 26.9897 26.1013 26.5465 26.5445C26.1032 26.9878 25.502 27.2368 24.8751 27.2368H13.6024C12.9755 27.2368 12.3743 26.9878 11.9311 26.5445C11.4878 26.1013 11.2388 25.5001 11.2388 24.8732V15.9641H27.2388ZM21.4162 17.9525C20.8366 17.9525 20.3762 18.1074 20.0359 18.4172C19.6948 18.727 19.5246 19.1459 19.5246 19.6746C19.5246 19.9786 19.6017 20.2492 19.7566 20.4863C19.9115 20.7234 20.1224 20.9103 20.3893 21.0463C20.0885 21.1738 19.8309 21.3854 19.6475 21.6557C19.4713 21.9205 19.3793 22.2323 19.3835 22.5503C19.3835 23.0935 19.569 23.5248 19.9399 23.8463C20.3108 24.167 20.8039 24.3277 21.4206 24.3277C22.0344 24.3277 22.526 24.1677 22.8948 23.8477C23.2642 23.5285 23.449 23.0965 23.449 22.551C23.449 22.2215 23.3617 21.9255 23.1871 21.6637C23.0126 21.4034 22.7631 21.1968 22.4388 21.0463C22.6981 20.9199 22.919 20.7265 23.0788 20.4863C23.2344 20.2492 23.313 19.9786 23.313 19.6746C23.313 19.1459 23.142 18.727 22.801 18.4172C22.4606 18.1074 21.9988 17.9525 21.4162 17.9525ZM17.758 18.0165H17.6257L15.2053 18.9074V19.7808L16.7268 19.2608V24.2426H17.758V18.0165ZM21.4119 21.4725C21.713 21.4725 21.9551 21.567 22.1391 21.7561C22.3217 21.9452 22.4133 22.1925 22.4133 22.4994C22.4133 22.815 22.326 23.0608 22.1515 23.2368C21.977 23.4128 21.7333 23.5008 21.4206 23.5008C21.1079 23.5008 20.8628 23.4099 20.686 23.2281C20.5079 23.0463 20.4191 22.8034 20.4191 22.4994C20.4191 22.1903 20.5093 21.9415 20.6897 21.7539C20.87 21.5663 21.1115 21.4725 21.4119 21.4725ZM21.4162 18.7837C21.6802 18.7837 21.8904 18.871 22.0468 19.0455C22.2031 19.2201 22.2817 19.4426 22.2817 19.7125C22.2817 19.9961 22.2039 20.2223 22.049 20.3903C21.894 20.5575 21.6853 20.6419 21.4206 20.6419C21.1566 20.6419 20.9471 20.5575 20.7922 20.3903C20.6373 20.223 20.5595 19.9968 20.5595 19.7125C20.5595 19.4259 20.6366 19.199 20.79 19.0332C20.9428 18.8666 21.1522 18.7837 21.4162 18.7837ZM24.8751 11.2368C25.502 11.2368 26.1032 11.4858 26.5465 11.9291C26.9897 12.3724 27.2388 12.9736 27.2388 13.6005V14.8732H11.2388V13.6005C11.2388 12.9736 11.4878 12.3724 11.9311 11.9291C12.3743 11.4858 12.9755 11.2368 13.6024 11.2368H24.8751Z" fill="#A6A6C5"/>
</svg>
