<svg width="38" height="38" viewBox="0 0 38 38" fill="none" xmlns="http://www.w3.org/2000/svg">
<rect width="38" height="38" rx="15.2381" fill="#ECECF8"/>
<path d="M27 12.224V22.224C26.9995 22.3189 26.9787 22.4126 26.939 22.4988C26.8993 22.585 26.8417 22.6618 26.77 22.724C25.4967 23.8265 24.2792 24.224 23.1183 24.224C21.5425 24.224 20.0708 23.4956 18.7017 22.8198C16.4892 21.724 14.5658 20.7748 12.3333 22.5381V26.224C12.3333 26.4008 12.2631 26.5704 12.1381 26.6954C12.013 26.8204 11.8435 26.8906 11.6667 26.8906C11.4899 26.8906 11.3203 26.8204 11.1953 26.6954C11.0702 26.5704 11 26.4008 11 26.224V12.224C11.0006 12.129 11.0216 12.0353 11.0614 11.949C11.1012 11.8628 11.159 11.7861 11.2308 11.724C14.2308 9.12564 16.9233 10.4565 19.2967 11.6306C21.5833 12.7623 23.5658 13.7406 25.8967 11.724C25.993 11.6405 26.1113 11.5863 26.2374 11.568C26.3636 11.5496 26.4924 11.5679 26.6085 11.6205C26.7247 11.6731 26.8233 11.7579 26.8926 11.8649C26.962 11.9719 26.9993 12.0965 27 12.224Z" fill="#A6A6C5"/>
</svg>
