<svg width="38" height="38" viewBox="0 0 38 38" fill="none" xmlns="http://www.w3.org/2000/svg">
<rect width="38" height="38" rx="15.2381" fill="#ECECF8"/>
<path d="M25.8758 9.71875H22.4383C22.1648 9.71875 21.9025 9.8274 21.7091 10.0208C21.5157 10.2142 21.407 10.4765 21.407 10.75C21.407 11.0235 21.5157 11.2858 21.7091 11.4792C21.9025 11.6726 22.1648 11.7812 22.4383 11.7812H23.3836L22.0395 13.1279C21.3513 12.556 20.5409 12.1498 19.6709 11.9406C18.8008 11.7314 17.8944 11.7248 17.0214 11.9213C16.1484 12.1178 15.3322 12.5121 14.6357 13.074C13.9392 13.6358 13.381 14.3501 13.0043 15.1617C12.6275 15.9734 12.4421 16.8607 12.4625 17.7553C12.4828 18.6499 12.7083 19.5279 13.1217 20.3216C13.535 21.1152 14.1251 21.8034 14.8464 22.3329C15.5677 22.8625 16.401 23.2193 17.282 23.3759V24.1562H15.5633C15.2898 24.1562 15.0275 24.2649 14.8341 24.4583C14.6407 24.6517 14.532 24.914 14.532 25.1875C14.532 25.461 14.6407 25.7233 14.8341 25.9167C15.0275 26.1101 15.2898 26.2188 15.5633 26.2188H17.282V27.9375C17.282 28.211 17.3907 28.4733 17.5841 28.6667C17.7775 28.8601 18.0398 28.9688 18.3133 28.9688C18.5868 28.9688 18.8491 28.8601 19.0425 28.6667C19.2359 28.4733 19.3445 28.211 19.3445 27.9375V26.2188H21.0633C21.3368 26.2188 21.5991 26.1101 21.7925 25.9167C21.9859 25.7233 22.0945 25.461 22.0945 25.1875C22.0945 24.914 21.9859 24.6517 21.7925 24.4583C21.5991 24.2649 21.3368 24.1562 21.0633 24.1562H19.3445V23.3759C20.2675 23.2113 21.1372 22.8268 21.8801 22.255C22.623 21.6832 23.2173 20.9408 23.6127 20.0908C24.008 19.2407 24.1928 18.3079 24.1515 17.3713C24.1101 16.4347 23.8438 15.5219 23.375 14.71L24.8445 13.2422V14.1875C24.8445 14.461 24.9532 14.7233 25.1466 14.9167C25.34 15.1101 25.6023 15.2188 25.8758 15.2188C26.1493 15.2188 26.4116 15.1101 26.605 14.9167C26.7984 14.7233 26.907 14.461 26.907 14.1875V10.75C26.907 10.4765 26.7984 10.2142 26.605 10.0208C26.4116 9.8274 26.1493 9.71875 25.8758 9.71875ZM18.3133 21.4062C17.5654 21.4062 16.8344 21.1845 16.2125 20.769C15.5907 20.3535 15.1061 19.763 14.8199 19.072C14.5337 18.3811 14.4588 17.6208 14.6047 16.8873C14.7506 16.1538 15.1107 15.4801 15.6395 14.9513C16.1684 14.4224 16.8421 14.0623 17.5756 13.9164C18.3091 13.7705 19.0694 13.8454 19.7603 14.1316C20.4512 14.4178 21.0418 14.9024 21.4573 15.5243C21.8728 16.1461 22.0945 16.8771 22.0945 17.625C22.0934 18.6275 21.6947 19.5886 20.9858 20.2975C20.2769 21.0064 19.3158 21.4051 18.3133 21.4062Z" fill="#A6A6C5"/>
<circle cx="18.1753" cy="17.3589" r="3.12448" stroke="#A6A6C5" stroke-width="2"/>
</svg>
