<svg width="38" height="38" viewBox="0 0 38 38" fill="none" xmlns="http://www.w3.org/2000/svg">
<rect width="38" height="38" rx="15.2381" fill="#ECECF8"/>
<path d="M19.0005 9.00244C21.1222 9.00244 23.1571 9.8453 24.6573 11.3456C26.1576 12.8459 27.0005 14.8807 27.0005 17.0024C27.0005 20.383 24.6251 24.0671 19.9359 28.0941C19.6751 28.3181 19.3427 28.4411 18.999 28.4408C18.6552 28.4405 18.323 28.3169 18.0626 28.0925L17.7525 27.8234C13.2708 23.9013 11.0005 20.3075 11.0005 17.0024C11.0005 14.8807 11.8433 12.8459 13.3436 11.3456C14.8439 9.8453 16.8788 9.00244 19.0005 9.00244ZM19.0005 13.9255C18.1844 13.9255 17.4018 14.2497 16.8248 14.8267C16.2477 15.4038 15.9236 16.1864 15.9236 17.0024C15.9236 17.8185 16.2477 18.6011 16.8248 19.1782C17.4018 19.7552 18.1844 20.0794 19.0005 20.0794C19.8165 20.0794 20.5992 19.7552 21.1762 19.1782C21.7532 18.6011 22.0774 17.8185 22.0774 17.0024C22.0774 16.1864 21.7532 15.4038 21.1762 14.8267C20.5992 14.2497 19.8165 13.9255 19.0005 13.9255Z" fill="#A6A6C5"/>
</svg>
