<svg width="24" height="24" viewBox="0 0 24 24" fill="none" xmlns="http://www.w3.org/2000/svg">
<path d="M16.5018 3.89877C16.7311 3.62788 17.0146 3.40739 17.3344 3.25135C17.6542 3.0953 18.0032 3.00712 18.3592 2.99243C18.7152 2.97774 19.0704 3.03686 19.4021 3.16603C19.7339 3.29519 20.0348 3.49156 20.2859 3.74263C20.537 3.99369 20.7326 4.29394 20.8604 4.62424C20.9881 4.95454 21.0451 5.30764 21.0278 5.66104C21.0105 6.01444 20.9193 6.36039 20.7599 6.67683C20.6005 6.99327 20.3764 7.27326 20.102 7.49896L7.95137 19.6496L3.0011 20.9997L4.35117 16.0494L16.5018 3.89877Z" stroke="#818181" stroke-width="1.8001" stroke-linecap="round" stroke-linejoin="round"/>
<path d="M14.7021 5.69922L18.3023 9.29941" stroke="#818181" stroke-width="1.8001" stroke-linecap="round" stroke-linejoin="round"/>
</svg>
