<svg width="38" height="38" viewBox="0 0 38 38" fill="none" xmlns="http://www.w3.org/2000/svg">
<rect width="38" height="38" rx="15.2381" fill="#ECECF8"/>
<path d="M28.1663 23.5098V26.2598C28.1674 26.5151 28.1151 26.7678 28.0128 27.0017C27.9105 27.2356 27.7605 27.4456 27.5724 27.6181C27.3843 27.7907 27.1622 27.9221 26.9203 28.0039C26.6785 28.0857 26.4222 28.1161 26.168 28.0931C23.3473 27.7866 20.6377 26.8227 18.2572 25.2789C16.0423 23.8715 14.1645 21.9938 12.7572 19.7789C11.208 17.3875 10.2439 14.6648 9.94299 11.8314C9.92008 11.5779 9.95021 11.3225 10.0314 11.0813C10.1127 10.84 10.2433 10.6184 10.4149 10.4304C10.5865 10.2424 10.7953 10.0922 11.0281 9.98941C11.2609 9.88657 11.5126 9.83334 11.7672 9.8331H14.5172C14.962 9.82872 15.3933 9.98625 15.7306 10.2763C16.0679 10.5664 16.2882 10.9693 16.3505 11.4098C16.4666 12.2898 16.6818 13.1539 16.9922 13.9856C17.1155 14.3137 17.1422 14.6703 17.0691 15.0131C16.996 15.3559 16.8261 15.6705 16.5797 15.9198L15.4155 17.0839C16.7204 19.3788 18.6206 21.279 20.9155 22.5839L22.0797 21.4198C22.3289 21.1733 22.6435 21.0035 22.9863 20.9303C23.3291 20.8572 23.6857 20.8839 24.0138 21.0073C24.8455 21.3176 25.7096 21.5329 26.5897 21.6489C27.0349 21.7118 27.4416 21.936 27.7323 22.2791C28.023 22.6222 28.1775 23.0602 28.1663 23.5098Z" fill="#A6A6C5"/>
</svg>
