<svg width="481" height="333" viewBox="0 0 481 333" fill="none" xmlns="http://www.w3.org/2000/svg">
<path opacity="0.2" d="M115.74 251.808H340.906C355.763 243.299 369.136 232.428 380.499 219.622C417.026 178.394 430.452 108.688 411.699 56.993L409.971 53.2712C396.092 23.3529 366.987 2.67062 333.743 0.244609C329.067 -0.0997476 324.371 -0.0804916 319.698 0.302201C288.534 2.87218 259.328 21.9563 244.83 49.2543C236.299 65.2933 232.102 84.4638 218.194 96.3202C200.125 111.747 173.036 108.947 149.359 105.29C125.682 101.633 98.5712 98.8974 80.5741 114.404C69.3007 124.115 64.2183 139.276 63.2105 153.997C60.5541 192.489 83.3169 230.046 115.74 251.808Z" fill="#4F4FD8"/>
<path d="M409.268 237.589C406.324 235.738 402.994 234.587 399.535 234.228C397.944 234.069 396.202 234.112 394.92 235.077C394.774 235.164 394.654 235.287 394.57 235.435C394.487 235.583 394.444 235.75 394.445 235.919C394.524 236.158 394.685 236.362 394.899 236.495C396.97 237.974 399.407 238.858 401.945 239.051C404.483 239.244 407.025 238.738 409.296 237.589" fill="#4F4FD8"/>
<path d="M409.016 237.308C406.757 235.649 404.649 233.794 402.717 231.765C400.776 229.725 399.415 227.206 398.772 224.465C398.643 224.059 398.604 223.63 398.658 223.207C398.711 222.785 398.856 222.379 399.081 222.018C404.12 225.941 408.044 231.016 409.016 237.308Z" fill="#4F4FD8"/>
<path d="M409.218 237.546C408.748 234.807 408.787 232.006 409.333 229.282C409.892 226.534 411.465 224.098 413.738 222.457C414.602 224.48 414.235 226.82 413.623 228.936C412.677 232.22 411.201 235.327 409.253 238.136" fill="#4F4FD8"/>
<path d="M414.142 246.4C411.147 246.768 408.548 248.344 406.316 250.36C404.074 252.401 402.513 255.083 401.846 258.041C404.776 257.861 407.259 255.795 409.045 253.477C410.83 251.159 412.097 248.618 414.084 246.451" fill="#4F4FD8"/>
<path d="M415.206 247.775C414.032 244.789 413.62 241.557 414.008 238.372C414.397 235.187 415.573 232.149 417.431 229.533C419.137 235.587 418.511 242.426 415.206 247.775Z" fill="#4F4FD8"/>
<path d="M421.707 255.521C418.977 255.354 416.258 255.993 413.887 257.359C411.517 258.725 409.6 260.757 408.375 263.203C408.268 263.353 408.203 263.528 408.187 263.712C408.17 263.895 408.203 264.08 408.282 264.246C408.397 264.358 408.538 264.44 408.692 264.485C408.847 264.53 409.01 264.537 409.167 264.506C411.795 264.333 414.127 262.756 416.049 260.956C417.971 259.157 419.649 257.069 421.772 255.514" fill="#4F4FD8"/>
<path d="M421.505 255.103C420.102 250.595 420.015 245.78 421.253 241.224C421.743 239.439 422.564 237.56 424.212 236.717C424.347 236.632 424.51 236.604 424.666 236.638C424.799 236.71 424.901 236.828 424.954 236.969C425.519 238.217 425.766 239.584 425.674 240.95C425.579 242.309 425.372 243.657 425.054 244.982C424.529 247.444 424.255 250.093 422.895 252.217C422.577 252.729 422.291 253.26 422.038 253.808C421.779 254.347 421.779 254.527 421.549 254.967" fill="#4F4FD8"/>
<path d="M438.718 257.666C437.444 252.814 438.797 246.932 441.856 242.951C442.08 242.663 442.375 242.347 442.742 242.383C443.311 242.433 443.462 243.182 443.462 243.75C443.232 248.739 441.601 253.562 438.754 257.666" fill="#4F4FD8"/>
<path d="M440.273 258.724C443.286 259.429 446.416 259.472 449.447 258.851C452.478 258.23 455.339 256.958 457.831 255.125C454.891 253.65 451.531 253.238 448.321 253.959C445.147 254.678 442.246 256.118 440.273 258.695" fill="#4F4FD8"/>
<path d="M441.576 255.493C444.88 250.115 451.208 246.602 457.514 246.278C456.794 248.848 454.678 250.842 452.302 252.037C449.869 253.146 447.294 253.914 444.65 254.319C443.635 254.514 442.238 254.73 441.576 255.529" fill="#4F4FD8"/>
<path d="M439.049 239.82C440.05 236.78 440.733 233.643 441.087 230.462C441.436 227.264 440.785 224.037 439.222 221.226C436.141 227.193 435.831 234.183 438.956 240.115" fill="#4F4FD8"/>
<path d="M449.43 234.572C453.03 228.022 460.394 222.788 467.838 222.054C464.958 229.202 457.133 234.731 449.43 234.572Z" fill="#4F4FD8"/>
<path d="M447.155 235.862C452.54 236.675 457.118 240.116 462.143 242.197C463.197 242.705 464.366 242.928 465.533 242.844C466.077 242.839 466.605 242.666 467.047 242.35C467.488 242.033 467.822 241.589 468.003 241.077C468.184 240.564 468.202 240.009 468.057 239.486C467.911 238.962 467.608 238.496 467.189 238.151C466.479 237.494 465.644 236.987 464.734 236.661C459.256 234.379 453.389 234.321 447.623 235.703" fill="#4F4FD8"/>
<path d="M444.045 239.633C445.262 239.978 445.68 240.612 446.644 241.432C449.932 244.229 453.823 246.227 458.011 247.271C458.443 247.379 459.012 247.415 459.228 247.026C459.444 246.637 459.177 246.27 458.933 245.96C457.104 243.822 454.735 242.213 452.072 241.303C449.452 240.331 447.177 239.143 444.045 239.402" fill="#4F4FD8"/>
<path d="M440.568 216.885C442.774 218.918 445.381 220.468 448.221 221.433C451.062 222.399 454.073 222.76 457.061 222.493C457.325 222.493 457.58 222.398 457.781 222.227C458.198 221.773 457.694 221.075 457.212 220.701C452.367 216.921 446.493 215.352 440.54 216.885" fill="#4F4FD8"/>
<path d="M444.7 215.322C447.619 213.175 451.005 211.749 454.58 211.159C458.156 210.57 461.82 210.835 465.274 211.931C462.583 214.431 459.13 215.952 455.469 216.251C451.844 216.581 448.189 216.271 444.671 215.336" fill="#4F4FD8"/>
<path d="M443.045 204.855C442.569 200.017 442.879 196.216 442.541 191.336C442.541 190.947 442.433 190.479 442.066 190.342C441.562 190.148 441.137 190.767 440.971 191.285C440.268 193.538 440.089 195.922 440.447 198.255C440.805 200.588 441.691 202.808 443.037 204.747" fill="#4F4FD8"/>
<path d="M442.728 205.368C445.889 203.329 448.613 200.681 450.74 197.579C452.324 195.419 453.62 192.82 453.296 190.164C452.185 190.198 451.094 190.473 450.099 190.97C449.105 191.467 448.231 192.175 447.537 193.044C446.155 194.793 445.153 196.811 444.593 198.968C443.952 201.128 443.498 203.288 442.75 205.375" fill="#4F4FD8"/>
<path d="M450.567 203.207C457.783 200.535 464.462 196.595 470.292 191.574C467.938 190.623 465.253 191.192 462.885 192.142C457.538 194.169 453.12 198.085 450.467 203.149" fill="#4F4FD8"/>
<path d="M444.887 208.037C448.518 208.553 452.201 208.572 455.837 208.094C459.393 207.497 462.748 206.093 466.066 204.697C466.367 204.62 466.625 204.429 466.786 204.164C466.838 204.011 466.843 203.846 466.799 203.69C466.755 203.535 466.665 203.396 466.541 203.293C466.286 203.092 465.988 202.952 465.67 202.882C462.071 201.875 458.169 202.35 454.62 203.545C451.228 204.699 447.966 206.204 444.887 208.037Z" fill="#4F4FD8"/>
<path d="M424.119 217.014C421.635 211.975 421.794 206.151 423.939 200.982C425.451 203.279 425.638 206.216 425.379 208.952C425.119 211.687 424.27 214.509 424.22 217.266" fill="#4F4FD8"/>
<path d="M414.192 212.011C411.082 211.968 407.998 212.575 405.137 213.793C402.276 215.012 399.701 216.815 397.577 219.087C400.711 219.466 403.886 218.878 406.676 217.403C409.446 215.932 412.058 214.184 414.473 212.184" fill="#4F4FD8"/>
<path d="M407.525 209.78C404.488 209.535 401.572 209.153 398.649 210.053C397.174 210.47 395.807 211.2 394.64 212.194C393.473 213.188 392.535 214.422 391.89 215.812C394.752 216.043 397.623 215.501 400.204 214.243C402.771 212.984 405.221 211.5 407.525 209.809" fill="#4F4FD8"/>
<path d="M417.402 209.88C414.674 208.088 411.866 206.281 408.691 205.561C405.517 204.841 401.831 205.366 399.614 207.72C402.184 209.232 405.308 209.412 408.252 209.412C411.197 209.412 414.897 209.376 417.704 210.37" fill="#4F4FD8"/>
<path d="M417.417 210.024C412.752 205.438 410.981 197.21 412.86 190.947C416.543 196.586 418.154 203.329 417.417 210.024Z" fill="#4F4FD8"/>
<path d="M430.252 197.038C431.13 194.993 431.749 192.848 432.534 190.768C433.26 188.663 434.368 186.711 435.802 185.009C437.255 183.294 439.323 182.219 441.561 182.014C440.846 185.176 439.478 188.154 437.545 190.757C435.613 193.36 433.158 195.531 430.338 197.131" fill="#4F4FD8"/>
<path d="M427.927 199.744C426.487 197.742 424.788 195.021 422.816 193.524C420.843 192.027 418.266 191.12 415.854 191.695C417.102 193.883 418.843 195.75 420.939 197.147C423.035 198.544 425.427 199.433 427.927 199.744Z" fill="#4F4FD8"/>
<path d="M428.395 197.21C427.345 194.82 426.572 192.318 426.091 189.752C425.611 187.166 426.022 184.494 427.257 182.172C429.82 187.017 430.641 192.25 428.524 197.289" fill="#4F4FD8"/>
<path d="M430.274 182.172C431.714 177.371 436.119 173.836 440.863 172.216C441.452 171.977 442.088 171.881 442.721 171.935C443.036 171.971 443.334 172.098 443.577 172.301C443.821 172.505 443.998 172.776 444.088 173.08C444.261 173.894 443.592 174.628 442.951 175.168C439.243 178.336 434.93 180.719 430.274 182.172Z" fill="#4F4FD8"/>
<path d="M430.324 178.249C430.511 175.153 430.705 172.015 431.706 169.077C432.707 166.14 434.658 163.398 437.465 162.116C437.947 165.241 436.565 168.35 434.902 171.036C433.239 173.721 431.231 176.269 430.238 179.264" fill="#4F4FD8"/>
<path d="M430.253 180.38C429.05 176.881 428.928 172.461 426.833 169.387C425.393 167.228 423.025 165.788 421.794 163.549C421.037 165.715 421.142 168.089 422.089 170.179C423.044 172.242 424.358 174.119 425.969 175.722C427.517 177.378 428.849 178.602 430.289 180.38" fill="#4F4FD8"/>
<path d="M430.274 283.394C430.18 283.394 430.101 260.063 430.094 231.282C430.087 202.501 430.159 179.155 430.252 179.155C430.346 179.155 430.425 202.487 430.432 231.282C430.44 260.077 430.368 283.394 430.274 283.394Z" fill="#263238"/>
<path d="M450.647 213.494C450.364 213.63 450.07 213.74 449.768 213.825L447.35 214.639C445.32 215.359 442.519 216.338 439.481 217.576C436.443 218.814 433.643 219.915 432.031 221.312C431.386 221.851 430.874 222.531 430.533 223.299C430.303 223.846 430.26 224.177 430.231 224.17C430.202 224.163 430.231 224.091 430.231 223.925C430.267 223.695 430.325 223.468 430.404 223.249C430.701 222.437 431.196 221.712 431.843 221.139C432.816 220.313 433.905 219.634 435.076 219.124C436.371 218.526 437.804 217.893 439.33 217.266C442.375 216.021 445.19 215.049 447.249 214.387C448.278 214.07 449.121 213.832 449.704 213.667C450.012 213.579 450.328 213.522 450.647 213.494Z" fill="#263238"/>
<path d="M457.349 197.074C457.281 197.172 457.198 197.26 457.104 197.333L456.384 198.053L453.591 200.594L444.283 208.88C440.684 212.113 437.516 215.201 435.342 217.519C434.248 218.685 433.391 219.643 432.808 220.312L432.131 221.09C432.057 221.183 431.973 221.267 431.879 221.341C431.879 221.341 431.937 221.233 432.081 221.046C432.225 220.859 432.427 220.578 432.707 220.233C433.262 219.513 434.097 218.541 435.162 217.353C437.973 214.286 440.943 211.369 444.06 208.614C447.702 205.389 451.021 202.488 453.418 200.4L456.298 197.938C456.615 197.679 456.881 197.463 457.09 197.283C457.168 197.204 457.255 197.134 457.349 197.074Z" fill="#263238"/>
<path d="M440.338 212.147C440.237 212.111 441 210.355 441.778 208.138C442.555 205.92 442.901 204.056 442.994 204.07C442.913 205.5 442.609 206.909 442.095 208.246C441.771 209.202 441.393 210.139 440.964 211.053C440.807 211.445 440.596 211.813 440.338 212.147Z" fill="#263238"/>
<path d="M430.296 226.28C430.087 226.081 429.899 225.861 429.734 225.625L428.294 223.789C427.092 222.234 425.415 220.081 423.557 217.727C421.7 215.373 419.958 213.271 418.734 211.745L417.294 209.931C417.105 209.707 416.936 209.466 416.791 209.211C417.013 209.391 417.215 209.594 417.395 209.816C417.77 210.219 418.295 210.817 418.943 211.558C420.232 213.048 421.981 215.157 423.853 217.49C425.724 219.822 427.358 222.025 428.51 223.616C429.093 224.415 429.554 225.056 429.864 225.524C430.032 225.761 430.177 226.014 430.296 226.28Z" fill="#263238"/>
<path d="M425.825 220.535C424.919 219.539 424.274 218.335 423.946 217.029C423.598 215.885 423.454 214.689 423.521 213.494H423.673C423.608 213.761 423.557 213.905 423.529 213.898C423.5 213.89 423.529 213.746 423.529 213.466H423.673C423.75 214.631 423.95 215.784 424.27 216.907C424.694 218.154 425.214 219.368 425.825 220.535Z" fill="#263238"/>
<path d="M420.051 213.286C419.645 212.984 419.205 212.731 418.741 212.53C417.574 212.185 416.348 212.087 415.142 212.242C413.908 212.337 412.685 212.534 411.485 212.832C410.991 212.985 410.489 213.105 409.98 213.192C410.426 212.921 410.912 212.722 411.42 212.602C412.62 212.224 413.859 211.982 415.113 211.882C416.375 211.714 417.659 211.852 418.856 212.285C419.358 212.471 419.78 212.824 420.051 213.286Z" fill="#263238"/>
<path d="M418.683 211.515C418.683 211.565 417.92 211.213 416.675 210.795C413.435 209.686 409.967 209.421 406.597 210.025C405.301 210.255 404.523 210.493 404.502 210.442C404.667 210.34 404.846 210.262 405.034 210.212C405.529 210.04 406.034 209.899 406.546 209.787C409.959 209.043 413.515 209.313 416.776 210.565C417.269 210.752 417.75 210.971 418.215 211.22C418.385 211.294 418.543 211.394 418.683 211.515Z" fill="#263238"/>
<path d="M430.252 204.071C429.66 202.413 429.179 200.717 428.812 198.995C428.321 197.302 427.941 195.577 427.675 193.834C428.262 195.496 428.743 197.193 429.115 198.916C429.602 200.609 429.981 202.33 430.252 204.071Z" fill="#263238"/>
<path d="M430.346 204.071C429.875 203.024 429.334 202.009 428.726 201.033C428.037 200.115 427.234 199.288 426.336 198.571C426.676 198.656 426.992 198.819 427.258 199.046C427.936 199.541 428.525 200.147 429 200.839C429.722 201.781 430.186 202.895 430.346 204.071Z" fill="#263238"/>
<path d="M430.273 270.955C430.237 270.955 430.165 270.394 429.906 269.407C429.521 268.01 428.997 266.655 428.344 265.362C426.097 261.139 423.317 257.222 420.073 253.707C418.223 251.597 416.43 249.603 414.911 247.703C413.545 246.024 412.311 244.244 411.218 242.376C410.488 241.115 409.865 239.795 409.354 238.431C409.188 237.941 409.058 237.56 408.994 237.301C408.948 237.17 408.914 237.035 408.893 236.897C408.893 236.897 409.094 237.43 409.476 238.38C410.031 239.72 410.683 241.016 411.427 242.261C412.542 244.096 413.786 245.849 415.149 247.509C416.682 249.395 418.474 251.374 420.325 253.484C424.061 257.681 426.991 261.913 428.56 265.261C429.188 266.574 429.671 267.953 430 269.371C430.091 269.758 430.161 270.15 430.209 270.545C430.243 270.679 430.265 270.817 430.273 270.955Z" fill="#263238"/>
<path d="M448.703 250.143C448.401 250.351 448.088 250.543 447.767 250.719C446.894 251.211 446.057 251.765 445.262 252.375C444.088 253.287 442.988 254.291 441.972 255.377C440.813 256.6 439.625 258.011 438.408 259.53C435.982 262.575 433.715 265.289 432.354 267.449C431.634 268.522 431.159 269.421 430.835 270.048C430.681 270.384 430.503 270.709 430.302 271.02C430.302 271.02 430.302 270.926 430.389 270.746C430.475 270.566 430.562 270.314 430.713 269.99C431.138 269.074 431.619 268.184 432.153 267.327C433.995 264.553 435.997 261.89 438.149 259.35C439.366 257.831 440.568 256.406 441.749 255.189C442.789 254.106 443.918 253.111 445.125 252.216C445.94 251.616 446.805 251.087 447.709 250.633C448.033 250.474 448.292 250.373 448.429 250.301C448.566 250.229 448.696 250.129 448.703 250.143Z" fill="#263238"/>
<path d="M449.063 256.896C448.399 257.047 447.725 257.148 447.047 257.199C445.409 257.37 443.789 257.69 442.209 258.156C440.65 258.661 439.189 259.431 437.89 260.431C436.889 261.201 436.414 261.871 436.371 261.799C436.445 261.627 436.547 261.469 436.673 261.331C436.99 260.932 437.347 260.568 437.739 260.244C439.029 259.166 440.515 258.347 442.116 257.832C443.718 257.352 445.37 257.06 447.04 256.961C447.711 256.878 448.388 256.856 449.063 256.896Z" fill="#263238"/>
<path d="M436.926 261.049C436.818 260.992 437.739 259.61 438.452 257.695C439.165 255.78 439.28 254.095 439.395 254.139C439.457 254.501 439.457 254.871 439.395 255.233C439.289 256.111 439.089 256.975 438.797 257.81C438.486 258.639 438.088 259.433 437.61 260.178C437.221 260.747 436.969 261.078 436.926 261.049Z" fill="#263238"/>
<path d="M454.67 232.003C454.564 232.069 454.454 232.126 454.339 232.176L453.382 232.608C452.964 232.788 452.453 233.018 451.877 233.328C451.301 233.637 450.632 233.932 449.926 234.357L448.811 234.99C448.429 235.206 448.047 235.473 447.637 235.71C446.816 236.214 445.996 236.826 445.118 237.452C443.248 238.862 441.487 240.409 439.848 242.081C438.236 243.775 436.749 245.585 435.399 247.495C434.802 248.395 434.219 249.237 433.751 250.079C433.513 250.49 433.261 250.885 433.031 251.274C432.8 251.663 432.628 252.052 432.433 252.412C432.037 253.132 431.757 253.808 431.476 254.398C431.195 254.989 430.979 255.5 430.813 255.925C430.648 256.349 430.518 256.645 430.41 256.896C430.371 257.013 430.317 257.124 430.252 257.228C430.268 257.106 430.302 256.987 430.353 256.875C430.439 256.609 430.554 256.285 430.691 255.874C430.828 255.464 431.037 254.917 431.303 254.319C431.569 253.722 431.836 253.031 432.217 252.304L432.8 251.152C433.002 250.756 433.254 250.36 433.52 249.935C433.988 249.086 434.564 248.229 435.162 247.322C436.502 245.383 437.992 243.551 439.618 241.844C441.272 240.164 443.05 238.612 444.938 237.2C445.83 236.574 446.665 235.969 447.493 235.48C447.911 235.228 448.299 234.969 448.688 234.76C449.077 234.551 449.458 234.343 449.818 234.141C450.538 233.738 451.215 233.421 451.805 233.162C452.304 232.914 452.816 232.693 453.339 232.5L454.325 232.118C454.433 232.06 454.549 232.021 454.67 232.003Z" fill="#263238"/>
<path d="M440.086 241.786C440.22 241.314 440.5 240.896 440.885 240.591C441.785 239.813 442.928 239.375 444.117 239.353C445.282 239.349 446.437 239.574 447.515 240.015C447.973 240.16 448.407 240.371 448.804 240.641C448.339 240.553 447.883 240.421 447.443 240.245C446.378 239.878 445.259 239.691 444.132 239.691C443.013 239.712 441.931 240.09 441.043 240.771C440.699 241.085 440.379 241.424 440.086 241.786Z" fill="#263238"/>
<path d="M437.904 244.032C438.883 242.156 439.139 239.987 438.624 237.935C438.82 238.19 438.951 238.489 439.006 238.806C439.2 239.55 439.254 240.324 439.164 241.088C439.073 241.844 438.841 242.577 438.48 243.247C438.185 243.794 437.94 244.061 437.904 244.032Z" fill="#263238"/>
<path d="M414.155 274.303C414.659 283.222 417.344 292.3 421.476 301.457H439.474C443.419 292.379 445.917 283.323 446.363 274.303H414.155Z" fill="#455A64"/>
<path d="M443.448 288.73C443.448 288.823 437.523 288.903 430.224 288.903C422.924 288.903 417.007 288.823 417.007 288.73C417.007 288.636 422.924 288.564 430.224 288.564C437.523 288.564 443.448 288.644 443.448 288.73Z" fill="#FAFAFA"/>
<path d="M443.03 291.961C443.03 292.054 437.48 292.133 430.634 292.133C423.788 292.133 418.245 292.054 418.245 291.961C418.245 291.867 423.795 291.795 430.634 291.795C437.473 291.795 443.03 291.867 443.03 291.961Z" fill="#FAFAFA"/>
<path d="M363.426 114.158H107.594C101.801 114.158 97.105 118.854 97.105 124.647V286.722C97.105 292.514 101.801 297.21 107.594 297.21H363.426C369.219 297.21 373.915 292.514 373.915 286.722V124.647C373.915 118.854 369.219 114.158 363.426 114.158Z" fill="#455A64"/>
<path d="M86.2852 285.39H386.189V288.593C386.189 291.992 384.839 295.251 382.436 297.654C380.032 300.057 376.773 301.407 373.375 301.407H99.0991C95.7006 301.407 92.4413 300.057 90.0383 297.654C87.6352 295.251 86.2852 291.992 86.2852 288.593V285.39Z" fill="#455A64"/>
<path d="M365.708 121.43H104.534V276.01H365.708V121.43Z" fill="#263238"/>
<path d="M208.227 283.669L211.941 289.593H264.313L267.768 283.669H208.227Z" fill="#263238"/>
<path d="M358.516 126.662H112.273C110.973 126.662 109.919 127.716 109.919 129.016V273.166C109.919 274.466 110.973 275.52 112.273 275.52H358.516C359.816 275.52 360.87 274.466 360.87 273.166V129.016C360.87 127.716 359.816 126.662 358.516 126.662Z" fill="#EBEBEB"/>
<path d="M360.597 275.737H109.646L109.919 137.793H360.597V275.737Z" fill="#FAFAFA"/>
<path d="M130.5 132.414C130.502 132.812 130.385 133.201 130.165 133.532C129.946 133.863 129.632 134.122 129.265 134.275C128.899 134.428 128.495 134.469 128.104 134.392C127.714 134.316 127.356 134.125 127.074 133.844C126.793 133.564 126.601 133.206 126.523 132.816C126.444 132.426 126.484 132.022 126.636 131.655C126.787 131.287 127.045 130.973 127.375 130.752C127.706 130.531 128.094 130.413 128.492 130.413C128.755 130.412 129.016 130.463 129.26 130.563C129.504 130.664 129.725 130.811 129.912 130.997C130.098 131.183 130.246 131.404 130.347 131.647C130.448 131.89 130.5 132.151 130.5 132.414Z" fill="#263238"/>
<path d="M118.349 132.414C118.35 132.812 118.233 133.202 118.013 133.533C117.793 133.864 117.479 134.123 117.112 134.276C116.745 134.429 116.34 134.469 115.95 134.392C115.56 134.315 115.201 134.123 114.92 133.842C114.639 133.56 114.447 133.202 114.37 132.812C114.293 132.421 114.333 132.017 114.486 131.65C114.639 131.282 114.898 130.969 115.229 130.749C115.56 130.528 115.95 130.412 116.347 130.413C116.611 130.412 116.871 130.463 117.114 130.563C117.358 130.664 117.579 130.811 117.765 130.997C117.951 131.183 118.098 131.404 118.198 131.647C118.299 131.891 118.35 132.151 118.349 132.414Z" fill="#263238"/>
<path d="M124.18 132.414C124.181 132.812 124.065 133.202 123.845 133.533C123.624 133.864 123.311 134.123 122.943 134.276C122.576 134.429 122.172 134.469 121.781 134.392C121.391 134.315 121.033 134.123 120.751 133.842C120.47 133.56 120.279 133.202 120.201 132.812C120.124 132.421 120.164 132.017 120.317 131.65C120.47 131.282 120.729 130.969 121.06 130.749C121.392 130.528 121.781 130.412 122.179 130.413C122.442 130.412 122.702 130.463 122.946 130.563C123.189 130.664 123.41 130.811 123.596 130.997C123.782 131.183 123.929 131.404 124.03 131.647C124.13 131.891 124.181 132.151 124.18 132.414Z" fill="#263238"/>
<path d="M371.532 283.669C371.532 283.77 310.097 283.849 234.329 283.849C158.561 283.849 97.105 283.77 97.105 283.669C97.105 283.568 158.533 283.489 234.329 283.489C310.126 283.489 371.532 283.576 371.532 283.669Z" fill="#263238"/>
<path d="M190.272 191.675L292.373 190.724L295.361 260.128L189.639 259.373L190.272 191.675Z" fill="#4F4FD8"/>
<path d="M190.272 191.689L238.504 152.491C239.495 151.686 240.733 151.246 242.01 151.246C243.287 151.246 244.525 151.686 245.516 152.491L292.366 190.732" fill="#4F4FD8"/>
<g opacity="0.3">
<path d="M190.272 191.69L238.504 152.492C239.495 151.687 240.733 151.247 242.01 151.247C243.287 151.247 244.525 151.687 245.516 152.492L292.366 190.733" fill="black"/>
</g>
<path d="M189.639 259.359C189.516 259.237 197.665 250.296 207.852 239.389C218.038 228.483 226.403 219.765 226.533 219.866C226.662 219.967 218.506 228.922 208.312 239.836C198.119 250.749 189.768 259.488 189.639 259.359Z" fill="#263238"/>
<path d="M295.361 260.129C295.231 260.251 287.255 251.49 277.544 240.642C267.832 229.793 260.065 220.845 260.194 220.73C260.324 220.614 268.3 229.368 278.019 240.224C287.737 251.08 295.49 260.014 295.361 260.129Z" fill="#263238"/>
<g opacity="0.5">
<path d="M292.373 190.724L241.189 231.787L190.272 191.675" fill="black"/>
</g>
<path d="M195.427 195.462L195.196 163.571L284.599 162.333L285.671 195.879L241.182 231.247L195.427 195.462Z" fill="#FAFAFA"/>
<path d="M195.427 195.461C195.427 195.461 195.722 195.67 196.276 196.095L198.709 197.974L207.967 205.172C215.943 211.399 227.404 220.29 241.276 231.146H241.089L285.556 195.749L285.491 195.9C285.282 189.501 285.066 182.784 284.85 175.952C284.699 171.352 284.555 166.803 284.411 162.347L284.598 162.527L195.203 163.707L195.319 163.585C195.362 173.613 195.405 181.582 195.427 187.039C195.427 189.767 195.427 191.869 195.427 193.302C195.427 194.021 195.427 194.547 195.427 194.921C195.427 195.296 195.427 195.476 195.427 195.476C195.427 195.476 195.427 195.296 195.427 194.936C195.427 194.576 195.427 194.029 195.427 193.33C195.427 191.891 195.383 189.803 195.355 187.082C195.304 181.603 195.225 173.634 195.131 163.585V163.47H195.247L284.591 162.174H284.778V162.361C284.922 166.817 285.066 171.36 285.218 175.96C285.434 182.791 285.649 189.508 285.851 195.908V196.001L285.779 196.059L241.261 231.405L241.168 231.484L241.074 231.405L207.801 205.295L198.616 198.053L196.218 196.152L195.427 195.461Z" fill="#263238"/>
<path d="M270.503 178.416C270.503 178.516 256.825 178.711 239.966 178.848C223.106 178.984 209.428 179.013 209.428 178.912C209.428 178.812 223.106 178.617 239.966 178.473C256.825 178.329 270.503 178.308 270.503 178.416Z" fill="#263238"/>
<path d="M270.518 187.42C270.518 187.521 256.84 187.723 239.988 187.86C223.135 187.996 209.45 188.025 209.45 187.917C209.45 187.809 223.128 187.622 239.988 187.485C256.847 187.348 270.518 187.32 270.518 187.42Z" fill="#263238"/>
<path d="M270.539 197.802C270.539 197.91 256.861 198.104 240.009 198.241C223.156 198.378 209.471 198.407 209.471 198.299C209.471 198.191 223.149 198.004 240.009 197.867C256.869 197.73 270.539 197.701 270.539 197.802Z" fill="#263238"/>
<path d="M270.561 208.182C270.561 208.29 257.524 208.478 241.434 208.607C225.345 208.737 212.301 208.766 212.301 208.658C212.301 208.55 225.338 208.362 241.434 208.233C257.531 208.103 270.561 208.082 270.561 208.182Z" fill="#263238"/>
<path d="M259.158 217.317C259.041 217.35 258.919 217.365 258.798 217.36L257.768 217.404L253.996 217.497L241.535 217.728C236.669 217.814 232.256 217.843 229.067 217.843H225.294H224.265C224.144 217.846 224.023 217.834 223.905 217.807C224.022 217.774 224.143 217.759 224.265 217.764L225.287 217.72L229.067 217.627L241.528 217.404C246.394 217.31 250.8 217.281 253.989 217.281H257.768H258.798C258.919 217.281 259.039 217.293 259.158 217.317Z" fill="#263238"/>
<path d="M247.64 226.1C245.486 226.294 243.323 226.362 241.161 226.302C239 226.37 236.836 226.312 234.682 226.129C236.836 225.939 238.999 225.872 241.161 225.928C243.322 225.864 245.485 225.921 247.64 226.1Z" fill="#263238"/>
<path d="M480.882 300.788C480.882 300.896 373.231 300.975 240.441 300.975C107.651 300.975 0 300.896 0 300.788C0 300.68 107.63 300.601 240.441 300.601C373.252 300.601 480.882 300.687 480.882 300.788Z" fill="#263238"/>
<path d="M139.348 209.084C139.405 208.68 139.31 208.27 139.081 207.933C138.852 207.596 138.506 207.357 138.109 207.262L136.504 207.37L130.745 205.376C130.498 205.311 130.24 205.301 129.99 205.347C129.739 205.394 129.501 205.495 129.295 205.645C129.088 205.794 128.917 205.988 128.794 206.212C128.672 206.435 128.6 206.684 128.585 206.938C128.585 208.587 127.865 213.079 126.562 211.668L126.462 211.574C124.568 209.465 122.38 208.443 121.538 208.565C121.357 208.601 121.191 208.687 121.058 208.814C120.925 208.941 120.831 209.103 120.787 209.281C120.743 209.46 120.751 209.647 120.81 209.821C120.869 209.996 120.977 210.149 121.12 210.264C121.218 210.366 121.335 210.447 121.466 210.502C121.523 210.502 121.595 210.574 121.653 210.602C122.449 211.182 123.185 211.84 123.849 212.568C124.448 213.2 124.935 213.931 125.288 214.727C125.67 215.62 125.972 216.398 126.21 217.067L126.296 222.344L124.007 247.014C124.007 247.014 108.817 231.062 109.17 230.91L110.056 255.761L119.256 263.37C120.959 264.786 123.034 265.683 125.233 265.955C127.431 266.227 129.662 265.861 131.659 264.902C133.656 263.943 135.336 262.43 136.498 260.544C137.661 258.659 138.258 256.479 138.217 254.263L137.692 222.365L138.066 218.183L139.348 209.084Z" fill="#FFBE9D"/>
<path d="M54.0703 244.156L37.4338 282.195L24.3031 309.637L14.5343 312.92C14.5343 312.92 6.80273 315.166 6.80273 316.764C6.80273 318.362 8.84 318.002 8.84 318.002C9.21434 320.392 12.5258 319.039 14.8438 318.002C17.1619 316.965 22.3162 316.677 22.3162 316.677C22.0468 316.861 21.8239 317.105 21.6654 317.39C21.5069 317.675 21.4171 317.993 21.4031 318.319C21.3891 318.644 21.4514 318.969 21.5849 319.266C21.7184 319.564 21.9195 319.826 22.1722 320.032C22.9929 320.608 24.4183 319.91 25.3829 318.88C26.3476 317.851 28.8384 317.376 31.6099 316.382C34.3815 315.389 34.835 311.674 34.835 311.674L68.1008 255.617L54.0703 244.156Z" fill="#FFBE9D"/>
<path d="M109.242 257.971L113.425 263.492L122.488 243.386C122.488 243.386 113.691 232.652 110.473 228.153C107.255 223.654 104.894 222.912 104.894 222.912C104.894 222.912 99.0487 221.206 96.1332 221.206L81.6923 222.07L67.0283 228.47C63.4267 230.042 60.3584 232.625 58.1953 235.906L44.3879 258.086L63.94 266.444L70.4981 303.993C71.7507 309.615 72.8521 314.92 78.0425 317.512L114.303 282.662L110.056 275.968L109.242 257.971Z" fill="#4F4FD8"/>
<path d="M74.5729 251.095C74.6592 251.153 72.4132 254.623 69.5841 258.856C66.7549 263.089 64.3649 266.458 64.2857 266.4C64.2065 266.343 66.4454 262.873 69.2745 258.64C72.1037 254.407 74.4865 251.038 74.5729 251.095Z" fill="#263238"/>
<path d="M104.973 286.716C104.668 286.934 104.346 287.127 104.009 287.292C103.382 287.637 102.461 288.127 101.316 288.731C99.0198 289.919 95.8379 291.51 92.2745 293.188C88.7111 294.865 85.4572 296.312 83.0816 297.32C81.8938 297.824 80.9219 298.227 80.2596 298.493C79.9174 298.646 79.5636 298.771 79.2014 298.867C79.5192 298.668 79.854 298.497 80.2021 298.356L82.9736 297.082C85.3204 296.01 88.5599 294.527 92.1161 292.849C95.6724 291.172 98.8758 289.617 101.194 288.53L103.944 287.205C104.272 287.013 104.617 286.849 104.973 286.716Z" fill="#263238"/>
<path d="M73.428 242.975C72.9611 242.474 72.535 241.938 72.1538 241.369C71.2004 240.046 70.1229 238.817 68.9359 237.698C67.7416 236.597 66.3252 235.765 64.7822 235.257C63.5944 234.883 62.8025 234.898 62.8025 234.826C62.9827 234.775 63.171 234.761 63.3568 234.782C63.8622 234.801 64.3641 234.873 64.8542 234.998C66.4648 235.452 67.945 236.281 69.1735 237.417C70.3825 238.552 71.4508 239.828 72.3553 241.218C72.7706 241.766 73.13 242.355 73.428 242.975Z" fill="#263238"/>
<path d="M103.246 261.237C103.264 261.371 103.264 261.507 103.246 261.64C103.246 261.9 103.246 262.281 103.246 262.778C103.161 264.176 102.966 265.565 102.663 266.932C101.695 271.478 99.6752 275.734 96.7662 279.36C93.8572 282.985 90.1394 285.878 85.9108 287.808C84.6393 288.388 83.3253 288.869 81.9803 289.248C81.5051 289.392 81.1236 289.471 80.8716 289.529C80.7456 289.569 80.615 289.593 80.4829 289.601C80.4829 289.601 81.0012 289.421 81.9227 289.111C83.2413 288.672 84.5302 288.148 85.7813 287.542C89.9342 285.567 93.5863 282.678 96.4637 279.092C99.3412 275.505 101.369 271.313 102.396 266.831C102.722 265.477 102.962 264.104 103.116 262.72C103.181 261.784 103.217 261.237 103.246 261.237Z" fill="#263238"/>
<g opacity="0.3">
<path d="M66.4737 280.956C66.4089 280.596 71.1242 256.221 71.1242 256.221L64.0117 266.897" fill="black"/>
</g>
<path d="M108.313 234.573C108.347 234.71 108.364 234.85 108.364 234.991C108.364 235.308 108.407 235.711 108.443 236.2C108.493 237.295 108.573 238.792 108.666 240.628C108.846 244.414 109.098 249.561 109.386 255.241C109.674 260.921 109.876 266.126 109.984 269.869C110.041 271.741 110.077 273.26 110.092 274.304V275.513C110.11 275.652 110.11 275.792 110.092 275.931C110.058 275.794 110.041 275.654 110.041 275.513C110.041 275.196 109.998 274.793 109.962 274.311C109.912 273.217 109.832 271.712 109.739 269.884C109.559 266.097 109.307 260.95 109.019 255.263C108.731 249.576 108.537 244.385 108.421 240.635C108.364 238.763 108.328 237.251 108.313 236.2V234.998C108.295 234.857 108.295 234.714 108.313 234.573Z" fill="#263238"/>
<g opacity="0.2">
<path d="M79.3741 298.801C78.2079 297.836 78.4742 295.864 79.5037 294.755C80.5331 293.646 82.0665 293.193 83.5062 292.703C90.3955 290.472 97.3208 287.319 101.863 281.675C102.443 280.867 103.128 280.141 103.901 279.515C104.295 279.204 104.765 279.004 105.262 278.935C105.76 278.867 106.266 278.933 106.73 279.126C108.119 279.846 108.169 281.862 107.586 283.323C106.861 285.117 105.514 286.588 103.793 287.47" fill="black"/>
</g>
<g opacity="0.2">
<path d="M108.465 238.9L112.489 262.253L109.35 258.114L108.465 238.9Z" fill="black"/>
</g>
<path d="M146.748 300.242L139.945 323.581L168.935 332.219C169.59 329.397 156.243 319.384 156.243 319.384L161.254 304.583L146.748 300.242Z" fill="#4F4FD8"/>
<g opacity="0.6">
<path d="M147.655 315.439C147.351 315.439 147.058 315.552 146.832 315.755C146.606 315.959 146.464 316.238 146.432 316.541C146.423 316.845 146.531 317.141 146.733 317.368C146.935 317.595 147.216 317.737 147.519 317.765C147.841 317.761 148.151 317.638 148.389 317.421C148.626 317.203 148.775 316.905 148.807 316.584C148.785 316.265 148.64 315.967 148.402 315.754C148.164 315.54 147.852 315.427 147.533 315.439" fill="white"/>
</g>
<g opacity="0.6">
<path d="M139.945 323.58L140.723 321.255L168.23 330.383C168.23 330.383 169.353 331.326 168.949 332.19L139.945 323.58Z" fill="white"/>
</g>
<path d="M156.755 319.347C156.712 319.484 155.985 319.347 155.15 319.592C154.314 319.837 153.775 320.312 153.659 320.226C153.544 320.139 153.998 319.376 155.013 319.095C156.028 318.815 156.827 319.225 156.755 319.347Z" fill="#263238"/>
<path d="M159.425 321.507C159.425 321.658 158.705 321.716 158.072 322.169C157.438 322.623 157.086 323.22 156.949 323.17C156.812 323.119 156.949 322.291 157.784 321.73C158.619 321.168 159.461 321.37 159.425 321.507Z" fill="#263238"/>
<path d="M160.073 325.66C159.929 325.66 159.943 324.882 160.541 324.22C161.138 323.558 161.887 323.443 161.909 323.572C161.93 323.702 161.405 324.004 160.922 324.559C160.44 325.113 160.217 325.689 160.073 325.66Z" fill="#263238"/>
<path d="M157.518 315.856C157.417 315.964 156.798 315.576 156.013 315.396C155.229 315.216 154.494 315.28 154.458 315.136C154.422 314.992 155.178 314.668 156.128 314.892C157.079 315.115 157.655 315.763 157.518 315.856Z" fill="#263238"/>
<path d="M157.849 312.213C157.338 312.197 156.841 312.045 156.409 311.774C155.911 311.526 155.447 311.217 155.027 310.852C154.77 310.63 154.529 310.39 154.307 310.132C154.172 309.995 154.06 309.837 153.976 309.665C153.912 309.536 153.893 309.389 153.922 309.249C153.951 309.108 154.025 308.981 154.134 308.887C154.235 308.81 154.353 308.757 154.478 308.733C154.603 308.709 154.732 308.715 154.854 308.75C155.039 308.805 155.216 308.885 155.379 308.988C155.664 309.156 155.934 309.349 156.186 309.564C156.611 309.931 156.976 310.363 157.266 310.845C157.58 311.261 157.756 311.764 157.77 312.285C157.69 312.285 157.496 311.767 156.963 311.054C156.655 310.635 156.292 310.26 155.883 309.938C155.646 309.749 155.393 309.58 155.128 309.434C154.847 309.261 154.588 309.182 154.465 309.297C154.343 309.413 154.415 309.355 154.465 309.463C154.528 309.59 154.611 309.707 154.71 309.809C154.911 310.044 155.125 310.267 155.351 310.478C155.735 310.832 156.149 311.153 156.589 311.435C157.338 311.911 157.877 312.134 157.849 312.213Z" fill="#263238"/>
<path d="M157.604 312.358C157.452 311.863 157.465 311.333 157.64 310.846C157.77 310.299 157.997 309.78 158.31 309.313C158.491 309.033 158.704 308.775 158.943 308.542C159.078 308.373 159.254 308.241 159.455 308.16C159.655 308.08 159.874 308.052 160.088 308.082C160.215 308.125 160.327 308.202 160.412 308.305C160.497 308.408 160.552 308.532 160.57 308.665C160.596 308.856 160.596 309.05 160.57 309.241C160.524 309.58 160.427 309.91 160.282 310.22C160.037 310.737 159.672 311.189 159.217 311.537C158.425 312.12 157.777 312.113 157.777 312.063C157.777 312.012 158.324 311.854 158.972 311.256C159.347 310.918 159.642 310.5 159.836 310.033C159.952 309.762 160.028 309.476 160.059 309.183C160.11 308.859 160.059 308.578 159.944 308.578C159.829 308.578 159.483 308.694 159.289 308.902C159.074 309.112 158.877 309.338 158.699 309.579C158.395 309.998 158.152 310.459 157.979 310.947C157.698 311.782 157.691 312.358 157.604 312.358Z" fill="#263238"/>
<path d="M176.515 265.493C177.235 270.878 175.407 276.946 173.456 282.05L160.743 311.911L146.669 309.751C146.669 309.751 143.739 313.02 139.988 314.272C138.311 314.827 132.789 315.914 128.247 312.645C128.247 312.645 121.818 321.601 111.69 324.307C101.561 327.014 86.2634 328.512 78.8486 316.677L114.123 282.669C114.843 282.842 144.524 262.829 160.555 258.273C160.584 258.273 175.162 255.595 176.515 265.493Z" fill="#263238"/>
<path d="M145.625 309.637C145.625 309.637 145.683 309.593 145.812 309.521L146.388 309.219C146.899 308.946 147.648 308.564 148.598 308.038C149.759 307.41 150.883 306.718 151.967 305.965C153.403 304.98 154.686 303.789 155.776 302.431C157.078 300.77 157.928 298.801 158.245 296.715C158.604 294.318 158.502 291.874 157.942 289.516C157.465 286.883 156.095 284.496 154.062 282.756C151.754 281.064 149.002 280.084 146.144 279.934C144.694 279.816 143.236 279.828 141.788 279.97C140.38 280.119 138.983 280.36 137.606 280.69C135.007 281.36 132.468 282.239 130.011 283.318C125.31 285.377 121.228 287.594 117.643 289.127C114.838 290.402 111.906 291.38 108.897 292.043C108.364 292.165 107.882 292.244 107.457 292.302C107.032 292.359 106.694 292.424 106.406 292.446L105.758 292.511H105.535L105.758 292.46L106.399 292.367C106.68 292.323 107.032 292.273 107.443 292.187C107.853 292.1 108.328 292.028 108.882 291.899C111.855 291.179 114.749 290.166 117.521 288.875C121.077 287.32 125.145 285.081 129.86 282.994C132.331 281.899 134.888 281.009 137.505 280.33C138.897 280 140.308 279.76 141.731 279.61C143.203 279.469 144.684 279.457 146.158 279.574C149.102 279.724 151.936 280.738 154.307 282.49C155.398 283.368 156.297 284.461 156.949 285.7C157.567 286.886 158.02 288.15 158.295 289.458C158.849 291.859 158.941 294.344 158.569 296.779C158.225 298.909 157.34 300.914 155.999 302.603C154.884 303.974 153.569 305.168 152.097 306.145C150.998 306.885 149.859 307.563 148.685 308.175C147.72 308.679 146.957 309.046 146.439 309.291L145.841 309.565C145.772 309.598 145.7 309.622 145.625 309.637Z" fill="#455A64"/>
<path d="M154.451 270.41C153.578 272.081 152.591 273.69 151.499 275.226C150.513 276.831 149.424 278.37 148.238 279.833C149.115 278.165 150.101 276.556 151.19 275.017C152.176 273.413 153.265 271.874 154.451 270.41Z" fill="#455A64"/>
<path d="M144.301 307.26C143.461 307.526 142.608 307.747 141.745 307.923C140.168 308.311 138.002 308.909 135.655 309.729C133.308 310.55 131.242 311.436 129.766 312.112C128.29 312.789 127.383 313.242 127.354 313.192C127.534 313.036 127.732 312.903 127.945 312.796C128.341 312.559 128.924 312.242 129.651 311.875C133.463 309.954 137.509 308.538 141.687 307.663C142.486 307.498 143.127 307.383 143.595 307.325C143.827 307.274 144.064 307.253 144.301 307.26Z" fill="#455A64"/>
<path d="M160.491 309.953C160.426 309.953 160.26 309.32 159.663 308.442C158.902 307.286 157.771 306.423 156.455 305.995C155.139 305.567 153.716 305.6 152.421 306.088C151.42 306.448 150.895 306.887 150.852 306.808C150.808 306.728 150.952 306.664 151.197 306.469C151.542 306.206 151.92 305.989 152.32 305.821C153.668 305.238 155.182 305.17 156.576 305.629C157.971 306.088 159.149 307.043 159.886 308.312C160.113 308.683 160.289 309.083 160.412 309.5C160.534 309.752 160.534 309.953 160.491 309.953Z" fill="#455A64"/>
<path d="M99.6029 298.802C99.7052 299.012 99.7686 299.239 99.7901 299.471C99.8978 300.097 99.9508 300.73 99.9485 301.365C99.9507 303.483 99.3785 305.563 98.2927 307.383C97.1868 309.207 95.4821 310.591 93.4695 311.299C92.8652 311.505 92.2353 311.626 91.5978 311.659C91.36 311.704 91.1158 311.704 90.8779 311.659C91.7222 311.546 92.5538 311.353 93.3615 311.083C95.2755 310.334 96.8895 308.975 97.9544 307.217C99.0016 305.452 99.5905 303.452 99.6677 301.401C99.7541 299.781 99.5381 298.809 99.6029 298.802Z" fill="#455A64"/>
<path d="M83.7294 314.949C83.6502 315.014 83.2759 314.69 82.9232 314.229C82.5704 313.769 82.3833 313.272 82.4768 313.222C82.5704 313.171 82.8872 313.531 83.2327 314.006C83.5783 314.481 83.8086 314.885 83.7294 314.949Z" fill="#455A64"/>
<path d="M86.6884 318.08C86.6236 318.159 86.2205 317.879 85.7886 317.461C85.3566 317.044 85.0687 316.648 85.1407 316.583C85.2127 316.518 85.623 316.784 86.0477 317.195C86.4724 317.605 86.7604 318.001 86.6884 318.08Z" fill="#455A64"/>
<path d="M90.1869 320.607C90.1365 320.693 89.6829 320.506 89.179 320.175C88.6751 319.844 88.3152 319.513 88.3727 319.455C88.4303 319.398 88.8911 319.57 89.3806 319.887C89.8701 320.204 90.2373 320.55 90.1869 320.607Z" fill="#455A64"/>
<path d="M94.1464 322.307C94.1464 322.408 93.6353 322.307 93.0665 322.12C92.4978 321.933 92.0731 321.674 92.1163 321.573C92.1595 321.472 92.6418 321.573 93.1889 321.767C93.736 321.962 94.1752 322.206 94.1464 322.307Z" fill="#455A64"/>
<path d="M98.4008 322.976C98.4008 323.077 97.9113 323.12 97.3066 323.063C96.7019 323.005 96.234 322.883 96.2484 322.782C96.2628 322.681 96.7595 322.638 97.3426 322.695C97.9257 322.753 98.4008 322.875 98.4008 322.976Z" fill="#455A64"/>
<path d="M102.706 322.745C102.706 322.846 102.238 322.961 101.64 323.004C101.372 323.027 101.102 323.027 100.834 323.004C100.654 323.004 100.546 322.961 100.539 322.911C100.532 322.86 100.633 322.81 100.805 322.759C101.065 322.698 101.33 322.659 101.597 322.644C102.223 322.587 102.691 322.637 102.706 322.745Z" fill="#455A64"/>
<path d="M106.946 321.989C106.946 322.09 106.521 322.27 105.931 322.399C105.34 322.529 104.858 322.543 104.844 322.442C104.829 322.342 105.276 322.154 105.859 322.032C106.442 321.91 106.924 321.874 106.946 321.989Z" fill="#455A64"/>
<path d="M111.078 320.714C111.078 320.815 110.682 321.045 110.113 321.24C109.544 321.434 109.055 321.499 109.026 321.405C108.997 321.312 109.429 321.074 109.991 320.88C110.552 320.685 111.042 320.621 111.078 320.714Z" fill="#455A64"/>
<path d="M115.044 319.03C115.095 319.123 114.684 319.404 114.144 319.649C113.605 319.893 113.122 320.023 113.079 319.929C113.036 319.836 113.446 319.555 113.986 319.31C114.526 319.066 115.001 318.936 115.044 319.03Z" fill="#455A64"/>
<path d="M118.831 316.95C118.881 317.037 118.507 317.353 117.989 317.67C117.471 317.987 117.01 318.138 116.967 318.052C116.923 317.965 117.291 317.641 117.802 317.332C118.313 317.022 118.781 316.871 118.831 316.95Z" fill="#455A64"/>
<path d="M122.38 314.525C122.445 314.611 122.099 314.956 121.61 315.309C121.12 315.662 120.681 315.871 120.624 315.784C120.566 315.698 120.912 315.345 121.394 315C121.876 314.654 122.33 314.445 122.38 314.525Z" fill="#455A64"/>
<path d="M125.72 311.774C125.792 311.853 125.475 312.235 125 312.623C124.525 313.012 124.122 313.271 124.057 313.192C123.992 313.113 124.302 312.731 124.777 312.343C125.252 311.954 125.648 311.702 125.72 311.774Z" fill="#455A64"/>
<path d="M128.859 308.808C128.931 308.887 128.636 309.283 128.204 309.686C127.772 310.089 127.355 310.363 127.29 310.291C127.225 310.219 127.506 309.83 127.945 309.413C128.384 308.995 128.794 308.736 128.859 308.808Z" fill="#455A64"/>
<path d="M132.271 306.151C132.329 306.238 131.99 306.591 131.508 306.936C131.026 307.282 130.587 307.498 130.522 307.418C130.457 307.339 130.802 306.987 131.285 306.634C131.767 306.281 132.213 306.072 132.271 306.151Z" fill="#455A64"/>
<path d="M136.058 304.072C136.101 304.165 135.698 304.453 135.173 304.72C134.647 304.986 134.172 305.123 134.122 305.029C134.071 304.936 134.467 304.648 135.007 304.381C135.547 304.115 136.015 303.993 136.058 304.072Z" fill="#455A64"/>
<path d="M140.176 302.79C140.176 302.89 139.744 303.092 139.175 303.229C138.606 303.366 138.11 303.409 138.081 303.315C138.052 303.222 138.498 303.013 139.082 302.869C139.665 302.725 140.161 302.689 140.176 302.79Z" fill="#455A64"/>
<path d="M144.481 302.552C144.481 302.66 143.984 302.696 143.394 302.681C142.803 302.667 142.328 302.617 142.321 302.516C142.314 302.415 142.796 302.3 143.401 302.307C144.006 302.314 144.488 302.465 144.481 302.552Z" fill="#455A64"/>
<path d="M148.641 303.661C148.591 303.755 148.13 303.618 147.583 303.423C147.036 303.229 146.582 303.035 146.604 302.934C146.625 302.833 147.129 302.862 147.705 303.071C148.281 303.279 148.684 303.567 148.641 303.661Z" fill="#455A64"/>
<path d="M147.727 306.793C147.662 306.706 147.986 306.353 148.368 305.921C148.749 305.49 149.088 305.13 149.152 305.202C149.217 305.274 149.066 305.727 148.649 306.188C148.231 306.649 147.792 306.872 147.727 306.793Z" fill="#455A64"/>
<path d="M143.919 308.772C143.919 308.672 144.3 308.412 144.84 308.189C145.38 307.966 145.863 307.858 145.913 307.952C145.963 308.045 145.546 308.304 144.984 308.535C144.423 308.765 143.977 308.873 143.919 308.772Z" fill="#455A64"/>
<path d="M139.801 310.098C139.801 309.997 140.197 309.767 140.766 309.572C141.334 309.378 141.817 309.306 141.853 309.407C141.889 309.508 141.45 309.738 140.888 309.925C140.327 310.112 139.837 310.191 139.801 310.098Z" fill="#455A64"/>
<path d="M135.77 311.631C135.727 311.537 136.144 311.285 136.706 311.062C137.267 310.839 137.742 310.745 137.778 310.839C137.814 310.932 137.397 311.192 136.843 311.415C136.288 311.638 135.806 311.731 135.77 311.631Z" fill="#455A64"/>
<path d="M131.789 313.35C131.746 313.257 132.156 312.983 132.703 312.753C133.25 312.522 133.733 312.4 133.769 312.494C133.805 312.587 133.402 312.861 132.854 313.091C132.307 313.322 131.825 313.408 131.789 313.35Z" fill="#455A64"/>
<path d="M123.741 189.868C123.741 189.868 128.449 188.429 134.705 181.482C140.96 174.535 143.48 165.644 144.308 165.644C145.136 165.644 148.627 163.686 156.546 178.07C164.465 192.453 162.06 196.117 160.7 196.189C159.339 196.261 149.901 194.375 144.142 195.469C138.383 196.563 131.184 200.12 131.184 200.12L123.741 189.868Z" fill="#455A64"/>
<path d="M114.173 198.745L116.038 201.732L116.873 203.064C117.425 203.948 118.295 204.586 119.303 204.847C120.312 205.108 121.382 204.973 122.294 204.468L132.286 200.148L125.296 186.953L115.448 193.13C114.995 193.414 114.603 193.785 114.294 194.222C113.984 194.658 113.764 195.151 113.646 195.673C113.528 196.194 113.513 196.734 113.604 197.261C113.694 197.788 113.888 198.292 114.173 198.745Z" fill="#263238"/>
<path d="M120.458 203.282L124.209 209.444L125.807 208.868L137.131 216.787L139.657 210.696C139.657 210.696 133.178 208.443 131.811 206.284C130.443 204.124 131.811 203.512 131.811 203.512L128.593 200.33L120.458 203.282Z" fill="#263238"/>
<path d="M156.035 178.387C160.275 186.183 162.326 193.26 160.613 194.225C158.9 195.189 154.076 189.596 149.815 181.799C145.553 174.003 143.523 166.927 145.236 165.962C146.95 164.997 151.787 170.584 156.035 178.387Z" fill="#263238"/>
<path d="M113.626 203.295L116.347 202.215L114.382 199.076L112.395 200.523L113.626 203.295Z" fill="#455A64"/>
<path d="M129.694 201.438L122.574 206.757L121.509 205.001L129.694 201.438Z" fill="#455A64"/>
<path d="M114.382 199.076L116.347 202.215L115.786 202.438L114.145 199.249L114.382 199.076Z" fill="#455A64"/>
<path d="M116.355 199.688C117.407 199.318 118.416 198.835 119.364 198.248C120.369 197.769 121.32 197.182 122.2 196.499C121.149 196.871 120.14 197.353 119.191 197.939C118.186 198.418 117.235 199.005 116.355 199.688Z" fill="#455A64"/>
<path d="M115.354 197.801C116.31 197.445 117.22 196.979 118.068 196.412C118.976 195.942 119.828 195.372 120.609 194.713C118.742 195.531 116.978 196.567 115.354 197.801Z" fill="#455A64"/>
<path d="M117.586 201.653C117.885 201.622 118.175 201.534 118.442 201.394L119.342 201.02C119.673 200.869 120.019 200.667 120.386 200.466C121.299 200.017 122.151 199.454 122.92 198.788C121.973 199.147 121.066 199.603 120.213 200.149C119.846 200.35 119.493 200.566 119.191 200.725C118.889 200.883 118.579 201.034 118.334 201.164C117.859 201.423 117.564 201.603 117.586 201.653Z" fill="#455A64"/>
<path d="M148.469 177.141C148.469 177.141 152.442 174.262 155.135 179.704C157.827 185.146 153.522 186.406 153.522 186.406C151.409 183.571 149.708 180.452 148.469 177.141Z" fill="#455A64"/>
<path d="M143.552 170.771C143.594 171.134 143.674 171.491 143.789 171.837C143.976 172.514 144.236 173.493 144.596 174.716C144.812 175.307 145.056 175.947 145.315 176.639L145.719 177.711C145.791 177.891 145.855 178.078 145.927 178.273C145.999 178.467 146.1 178.64 146.187 178.827L147.31 181.181C147.403 181.39 147.504 181.591 147.605 181.8C147.705 182.009 147.828 182.203 147.943 182.405L148.663 183.636L149.383 184.867C149.505 185.061 149.613 185.27 149.743 185.457C149.872 185.644 150.009 185.839 150.131 186.026L151.629 188.185C151.751 188.351 151.859 188.524 151.982 188.682L152.37 189.15L153.09 190.028L154.408 191.612C155.279 192.519 155.999 193.225 156.495 193.721C156.741 193.986 157.011 194.227 157.302 194.441C157.082 194.148 156.841 193.872 156.582 193.613L154.58 191.454L153.335 189.805L152.615 188.92L152.241 188.452C152.118 188.293 152.01 188.121 151.895 187.955L150.455 185.795L150.074 185.234C149.937 185.047 149.836 184.838 149.714 184.644L148.994 183.42C148.757 183.009 148.519 182.599 148.274 182.203C148.166 182.002 148.037 181.807 147.936 181.599C147.835 181.39 147.741 181.188 147.641 180.987L146.51 178.661C146.424 178.474 146.323 178.294 146.251 178.107C146.179 177.92 146.1 177.733 146.028 177.553C145.884 177.186 145.747 176.833 145.611 176.495L144.855 174.594C144.473 173.421 144.171 172.434 143.948 171.779C143.841 171.434 143.708 171.097 143.552 170.771Z" fill="#263238"/>
<path d="M132.847 203.525C133.152 203.613 133.411 203.816 133.569 204.092C133.726 204.368 133.769 204.694 133.689 205.001C133.38 206.225 132.876 208.147 132.473 209.321C132.361 209.706 132.177 210.067 131.933 210.386C131.813 210.559 131.643 210.69 131.445 210.762C131.247 210.833 131.032 210.84 130.83 210.783C130.627 210.726 130.448 210.607 130.317 210.443C130.185 210.279 130.109 210.078 130.097 209.868C130.05 209.447 130.087 209.021 130.205 208.615C130.457 207.47 130.925 205.736 131.328 204.361C131.372 204.205 131.446 204.06 131.547 203.934C131.647 203.808 131.772 203.703 131.913 203.625C132.054 203.547 132.21 203.499 132.37 203.481C132.53 203.464 132.693 203.479 132.847 203.525Z" fill="#FFBE9D"/>
<path d="M134.798 205.512C135.103 205.599 135.362 205.802 135.52 206.078C135.677 206.354 135.72 206.68 135.641 206.987C135.331 208.211 134.827 210.133 134.417 211.307C134.307 211.693 134.124 212.055 133.877 212.372C133.753 212.53 133.588 212.651 133.4 212.722C133.212 212.793 133.009 212.812 132.811 212.775C132.61 212.708 132.431 212.585 132.296 212.421C132.161 212.256 132.075 212.057 132.048 211.847C132.003 211.426 132.037 211.001 132.149 210.594C132.408 209.457 132.869 207.714 133.272 206.339C133.364 206.026 133.576 205.763 133.862 205.606C134.149 205.45 134.485 205.413 134.798 205.504V205.512Z" fill="#FFBE9D"/>
<path d="M136.677 206.707C136.939 206.787 137.159 206.965 137.293 207.203C137.427 207.442 137.464 207.723 137.397 207.988C137.131 209.046 136.677 210.709 136.339 211.724C136.243 212.061 136.084 212.376 135.871 212.653C135.767 212.802 135.619 212.914 135.448 212.975C135.277 213.035 135.092 213.041 134.917 212.991C134.743 212.941 134.588 212.838 134.475 212.696C134.362 212.554 134.297 212.381 134.287 212.199C134.244 211.835 134.273 211.466 134.373 211.112C134.597 210.126 135 208.643 135.345 207.427C135.425 207.157 135.609 206.93 135.856 206.795C136.102 206.66 136.393 206.629 136.663 206.707H136.677Z" fill="#FFBE9D"/>
<path d="M138.815 206.945C139.078 207.025 139.3 207.204 139.434 207.444C139.568 207.685 139.604 207.967 139.535 208.234C139.268 209.299 138.815 210.969 138.469 211.991C138.375 212.328 138.216 212.644 138.001 212.92C137.898 213.072 137.75 213.187 137.578 213.249C137.406 213.312 137.218 213.319 137.042 213.268C136.866 213.218 136.71 213.114 136.596 212.97C136.483 212.826 136.418 212.65 136.41 212.466C136.367 212.1 136.397 211.728 136.497 211.372C136.72 210.386 137.123 208.889 137.476 207.672C137.515 207.538 137.581 207.413 137.669 207.304C137.757 207.195 137.866 207.104 137.989 207.038C138.112 206.971 138.247 206.929 138.386 206.914C138.525 206.899 138.666 206.912 138.8 206.952L138.815 206.945Z" fill="#FFBE9D"/>
<path d="M132.171 210.408C132.222 209.617 132.4 208.839 132.696 208.104C132.877 207.33 133.178 206.589 133.589 205.908C133.537 206.7 133.357 207.478 133.056 208.212C132.876 208.985 132.577 209.726 132.171 210.408Z" fill="#EB996E"/>
<path d="M136.223 212.042C136.551 210.504 137.001 208.995 137.57 207.528C137.487 209.121 137.025 210.671 136.223 212.049V212.042Z" fill="#EB996E"/>
<path d="M134.215 211.782C134.543 210.239 134.994 208.725 135.561 207.254C135.48 208.849 135.018 210.401 134.215 211.782Z" fill="#EB996E"/>
<path d="M170.793 150.909C170.872 150.967 167.913 154.976 164.198 159.857C160.484 164.738 157.388 168.647 157.309 168.582C157.23 168.517 160.189 164.515 163.896 159.634C167.604 154.753 170.706 150.844 170.793 150.909Z" fill="#263238"/>
<path d="M190.107 162.333C190.15 162.427 183.945 165.4 176.242 168.971C168.539 172.541 162.269 175.363 162.226 175.27C162.183 175.176 168.388 172.203 176.084 168.632C183.779 165.062 190.049 162.24 190.107 162.333Z" fill="#263238"/>
<path d="M187.227 186.104C187.227 186.205 182.793 185.866 177.35 185.341C171.908 184.815 167.495 184.304 167.502 184.203C167.51 184.103 171.937 184.441 177.386 184.966C182.836 185.492 187.242 186.003 187.227 186.104Z" fill="#263238"/>
<path d="M73.7302 199.437L78.6182 227.224C79.0446 229.549 80.3549 231.619 82.2743 232.999C84.1936 234.378 86.5728 234.961 88.9125 234.624C90.1133 234.47 91.2708 234.076 92.3164 233.466C93.362 232.856 94.2744 232.042 94.9995 231.072C95.7246 230.103 96.2476 228.997 96.5376 227.822C96.8275 226.646 96.8784 225.425 96.6873 224.229L95.8954 219.449C95.8954 219.449 102.734 217.592 102.022 210.724C101.676 207.413 100.409 200.646 99.1853 194.556C98.4919 191.25 96.5492 188.339 93.7622 186.431C90.9752 184.522 87.5591 183.763 84.2261 184.312C82.5297 184.586 80.906 185.2 79.4521 186.116C77.9981 187.032 76.7438 188.232 75.7641 189.644C74.7843 191.056 74.0992 192.65 73.7498 194.333C73.4003 196.016 73.3937 197.751 73.7302 199.437Z" fill="#FFBE9D"/>
<path d="M95.91 219.463C92.7091 219.883 89.4554 219.355 86.5515 217.944C86.5515 217.944 89.2655 222.645 96.1332 221.206L95.91 219.463Z" fill="#EB996E"/>
<path d="M97.6951 199.192C97.7259 199.448 97.6549 199.707 97.4974 199.911C97.34 200.116 97.1085 200.25 96.8528 200.286C96.7289 200.311 96.6012 200.311 96.4772 200.286C96.3533 200.261 96.2356 200.212 96.131 200.141C96.0264 200.07 95.937 199.978 95.8681 199.872C95.7993 199.766 95.7522 199.648 95.7298 199.523C95.697 199.266 95.7671 199.006 95.9247 198.8C96.0824 198.593 96.315 198.458 96.5721 198.422C96.6966 198.397 96.8248 198.397 96.9491 198.423C97.0735 198.448 97.1915 198.498 97.2962 198.57C97.4009 198.642 97.4901 198.734 97.5586 198.841C97.6271 198.948 97.6736 199.067 97.6951 199.192Z" fill="#263238"/>
<path d="M97.9039 197.529C97.796 197.673 96.9753 197.205 95.9099 197.334C94.8444 197.464 94.1173 198.054 93.9878 197.954C93.8582 197.853 93.9878 197.658 94.3333 197.378C94.7624 197.011 95.2913 196.78 95.8523 196.715C96.4105 196.65 96.9753 196.763 97.4648 197.039C97.8391 197.248 97.9831 197.45 97.9039 197.529Z" fill="#263238"/>
<path d="M87.6385 200.4C87.6693 200.657 87.5986 200.916 87.4412 201.122C87.2839 201.328 87.0525 201.464 86.7962 201.502C86.6713 201.526 86.5427 201.526 86.4178 201.501C86.293 201.476 86.1745 201.426 86.0692 201.354C85.964 201.282 85.8741 201.19 85.8049 201.083C85.7356 200.976 85.6884 200.857 85.666 200.731C85.6352 200.475 85.7062 200.217 85.8637 200.012C86.0211 199.808 86.2526 199.673 86.5082 199.637C86.6326 199.612 86.7608 199.612 86.8852 199.637C87.0096 199.662 87.1278 199.711 87.233 199.782C87.3381 199.853 87.4281 199.944 87.4978 200.05C87.5674 200.156 87.6152 200.275 87.6385 200.4Z" fill="#263238"/>
<path d="M87.5882 198.89C87.4802 199.026 86.6667 198.566 85.5941 198.688C84.5215 198.81 83.8016 199.408 83.672 199.314C83.5424 199.221 83.708 199.019 84.0248 198.731C84.4513 198.361 84.9819 198.132 85.5437 198.076C86.0987 198.013 86.6598 198.123 87.149 198.393C87.509 198.63 87.6458 198.89 87.5882 198.89Z" fill="#263238"/>
<path d="M92.3827 206.922C92.9297 206.688 93.5023 206.519 94.0889 206.419C94.3552 206.361 94.6072 206.275 94.636 206.087C94.6234 205.806 94.5255 205.535 94.3552 205.31L93.3114 203.352C91.8716 200.566 90.7558 198.255 90.871 198.198C90.9862 198.14 92.2675 200.357 93.7505 203.15C94.1032 203.834 94.4704 204.489 94.7583 205.123C94.9706 205.424 95.0653 205.793 95.0247 206.159C94.9965 206.26 94.9454 206.352 94.8754 206.43C94.8055 206.507 94.7186 206.567 94.6216 206.606C94.476 206.663 94.3235 206.702 94.168 206.721C93.5836 206.862 92.9839 206.93 92.3827 206.922Z" fill="#263238"/>
<path d="M89.323 208.01C89.4958 208.01 89.6326 209.118 90.7196 209.824C91.8066 210.529 93.0304 210.256 93.052 210.414C93.0736 210.573 92.8073 210.666 92.2817 210.738C91.6042 210.826 90.917 210.676 90.3381 210.313C89.7877 209.964 89.3952 209.414 89.2438 208.78C89.143 208.305 89.2654 208.01 89.323 208.01Z" fill="#263238"/>
<path d="M87.3866 195.391C87.3147 195.686 86.2276 195.671 84.9894 195.959C83.7512 196.247 82.7794 196.679 82.585 196.47C82.4914 196.355 82.6354 196.06 83.017 195.75C83.528 195.352 84.121 195.072 84.7533 194.93C85.3857 194.788 86.0416 194.788 86.674 194.93C87.1563 195.045 87.4154 195.247 87.3866 195.391Z" fill="#263238"/>
<path d="M97.3354 195.16C97.177 195.419 96.4067 195.254 95.5213 195.34C94.6358 195.427 93.9015 195.686 93.7 195.455C93.6136 195.347 93.7 195.088 94.0023 194.829C94.4108 194.494 94.9149 194.298 95.4421 194.268C95.9641 194.218 96.489 194.328 96.9466 194.584C97.2706 194.8 97.4002 195.031 97.3354 195.16Z" fill="#263238"/>
<path d="M99.2214 182.822C98.7587 182.471 98.1852 182.297 97.6052 182.333C97.0252 182.368 96.4773 182.611 96.0611 183.017C96.3422 182.548 96.4354 181.991 96.3218 181.456C96.2083 180.922 95.8965 180.451 95.4492 180.137C94.9911 179.833 94.4712 179.635 93.9272 179.557C93.3832 179.478 92.8286 179.522 92.3033 179.684C91.2536 180.009 90.2605 180.495 89.359 181.123C89.3975 180.909 89.3723 180.689 89.2866 180.489C89.2008 180.29 89.0583 180.12 88.8767 180C88.5023 179.771 88.077 179.637 87.6385 179.612C85.8323 179.495 84.0306 179.899 82.4481 180.778C80.7532 181.719 79.1462 182.81 77.6465 184.039C75.9697 185.39 74.4915 186.97 73.2552 188.732L73.1976 188.783C72.1826 189.69 71.3259 192.425 71.4771 193.764C72.0458 198.71 73.6871 201.568 74.6086 206.247C74.6388 206.566 74.7614 206.868 74.9613 207.118C75.5301 207.709 76.5523 207.205 77.121 206.586C78.3452 204.992 78.9901 203.03 78.9495 201.021C79.0143 199.034 78.7263 197.054 78.7767 195.067V194.923C78.7903 194.417 78.8384 193.912 78.9207 193.412C79.0071 193.088 79.8494 190.251 82.5777 189.812C85.4572 189.323 91.1803 192.13 94.0095 191.684C96.8386 191.238 96.9898 189.244 96.9898 189.244L98.6527 192.627C99.0348 191.252 99.1255 189.813 98.9191 188.401C99.6385 187.743 100.141 186.882 100.359 185.932C100.474 185.359 100.428 184.766 100.228 184.217C100.027 183.668 99.6788 183.186 99.2214 182.822Z" fill="#263238"/>
<path d="M76.4446 202.388C76.3222 202.352 71.499 201.539 72.1972 206.211C72.8955 210.883 77.5172 209.227 77.5028 209.091C77.4884 208.954 76.4446 202.388 76.4446 202.388Z" fill="#FFBE9D"/>
<path d="M75.789 207.527C75.789 207.527 75.717 207.599 75.5875 207.678C75.4022 207.792 75.181 207.83 74.9684 207.786C74.6359 207.641 74.3482 207.409 74.1345 207.116C73.9207 206.822 73.7887 206.477 73.7518 206.116C73.6829 205.716 73.7025 205.306 73.8093 204.914C73.8315 204.759 73.8918 204.613 73.9848 204.487C74.0778 204.361 74.2006 204.261 74.3421 204.194C74.4328 204.157 74.5335 204.151 74.6277 204.179C74.722 204.206 74.804 204.265 74.8604 204.345C74.9396 204.468 74.9252 204.569 74.954 204.569C74.9828 204.569 75.0403 204.475 74.954 204.288C74.9057 204.178 74.8254 204.085 74.7236 204.021C74.577 203.946 74.4076 203.928 74.2485 203.971C74.0679 204.043 73.9077 204.157 73.7821 204.306C73.6565 204.454 73.5694 204.631 73.5286 204.821C73.39 205.255 73.3603 205.718 73.4422 206.167C73.485 206.587 73.6504 206.986 73.9178 207.314C74.1853 207.642 74.5431 207.884 74.9468 208.01C75.0768 208.025 75.2086 208.011 75.3329 207.97C75.4573 207.929 75.5712 207.862 75.6666 207.772C75.7962 207.642 75.8034 207.527 75.789 207.527Z" fill="#EB996E"/>
<path d="M65.7973 236.214C65.9268 236.16 66.0677 236.138 66.2077 236.15C66.6178 236.185 66.999 236.375 67.2731 236.682C67.494 236.918 67.6632 237.197 67.7698 237.502C67.8764 237.807 67.9181 238.131 67.8922 238.453C67.8079 239.279 67.6242 240.091 67.3451 240.872C67.1695 241.318 67.0933 241.797 67.1219 242.276C67.1505 242.755 67.2832 243.222 67.5107 243.644C68.0218 244.536 69.0656 245.22 69.4903 246.466C69.6993 247.101 69.7114 247.784 69.5251 248.427C69.3389 249.069 68.9629 249.64 68.4465 250.065C67.8949 250.516 67.2144 250.781 66.5028 250.821C65.7964 250.812 65.0952 250.698 64.4224 250.483C63.7963 250.272 63.1261 250.23 62.4787 250.36C61.8812 250.576 61.3739 250.987 61.0389 251.526C60.6825 252.077 60.2726 252.59 59.8151 253.06C59.5732 253.29 59.2868 253.468 58.9736 253.583C58.6604 253.698 58.327 253.748 57.9938 253.729C57.3924 253.678 56.8134 253.477 56.3102 253.143C55.8071 252.81 55.3958 252.355 55.1143 251.822C54.6644 250.906 54.4188 249.904 54.3944 248.884C54.344 247.963 54.3944 247.135 54.3944 246.415C54.3873 245.8 54.3344 245.187 54.236 244.58C54.1321 244.064 53.9852 243.559 53.7969 243.068C53.8804 243.178 53.9483 243.299 53.9984 243.428C54.1692 243.785 54.2949 244.162 54.3728 244.551C54.506 245.162 54.5831 245.783 54.6031 246.408C54.6031 247.128 54.6031 247.963 54.6967 248.87C54.7305 249.845 54.9762 250.8 55.4166 251.67C55.678 252.149 56.0532 252.555 56.5089 252.854C56.9647 253.153 57.487 253.335 58.0298 253.384C58.3168 253.399 58.6038 253.354 58.8727 253.252C59.1416 253.151 59.3864 252.994 59.5919 252.793C60.0309 252.339 60.424 251.842 60.7653 251.31C61.1452 250.703 61.7183 250.242 62.3923 250C63.1099 249.844 63.8566 249.886 64.5519 250.123C65.1913 250.321 65.8551 250.43 66.5244 250.447C67.1589 250.412 67.7662 250.178 68.2593 249.777C68.7233 249.399 69.0622 248.889 69.2318 248.315C69.4013 247.741 69.3936 247.129 69.2096 246.559C68.8568 245.458 67.8418 244.759 67.2803 243.788C66.9995 243.316 66.8573 242.774 66.87 242.226C66.8968 241.737 66.9838 241.253 67.1291 240.786C67.4199 240.025 67.6205 239.232 67.7266 238.425C67.7604 238.127 67.7318 237.825 67.6425 237.538C67.5533 237.252 67.4054 236.988 67.2083 236.762C66.9615 236.471 66.6198 236.277 66.2437 236.214C65.9413 236.193 65.7973 236.236 65.7973 236.214Z" fill="#FAFAFA"/>
<path d="M67.7769 286.6C67.7769 286.6 67.8273 286.773 67.9929 287.046C68.2547 287.436 68.6527 287.713 69.1087 287.824C69.4613 287.924 69.8327 287.936 70.1913 287.861C70.5498 287.786 70.8848 287.625 71.1676 287.392C71.8997 286.733 72.3849 285.844 72.5426 284.872C72.7729 283.8 72.7297 282.576 72.9385 281.273C73.0385 280.583 73.2629 279.917 73.6008 279.308C73.9635 278.636 74.5489 278.111 75.2565 277.825C75.9969 277.562 76.7918 277.49 77.5673 277.616C78.352 277.695 79.1223 277.875 79.8998 277.976C80.6838 278.103 81.4859 278.064 82.2538 277.861C83.0335 277.636 83.7521 277.237 84.3558 276.694C84.9583 276.152 85.4055 275.459 85.6516 274.686C85.8716 273.934 85.8565 273.133 85.6084 272.39C85.4002 271.678 84.9962 271.04 84.4424 270.547C83.8887 270.055 83.2076 269.728 82.477 269.604C81.0372 269.445 79.7414 270.144 78.3808 270.172C77.7209 270.192 77.0669 270.043 76.4803 269.74C75.9532 269.471 75.4541 269.15 74.9902 268.783C74.2397 268.136 73.3887 267.615 72.4706 267.242C72.1215 267.109 71.7478 267.053 71.375 267.078C71.0022 267.103 70.6392 267.208 70.3109 267.386C69.8941 267.599 69.5672 267.954 69.3895 268.387C69.3424 268.546 69.304 268.707 69.2743 268.869C69.2504 268.7 69.2652 268.528 69.3175 268.365C69.4738 267.893 69.8029 267.497 70.2389 267.257C70.5494 267.078 70.8917 266.96 71.2468 266.911C71.6693 266.87 72.0958 266.916 72.4994 267.048C73.4526 267.405 74.3386 267.921 75.1197 268.574C76.0102 269.364 77.1479 269.82 78.3376 269.863C79.0033 269.806 79.6617 269.683 80.3029 269.496C81.003 269.289 81.7347 269.211 82.4626 269.265C83.2608 269.391 84.007 269.741 84.6147 270.273C85.2224 270.806 85.6668 271.5 85.8964 272.274C86.1761 273.088 86.1937 273.969 85.9468 274.794C85.6799 275.624 85.198 276.37 84.5502 276.954C83.9051 277.538 83.1341 277.967 82.297 278.206C81.4822 278.423 80.6303 278.463 79.799 278.321C78.9927 278.213 78.2224 278.041 77.4738 277.954C76.7502 277.831 76.0073 277.893 75.3141 278.134C74.6728 278.383 74.1417 278.853 73.8167 279.459C73.4952 280.033 73.276 280.659 73.1689 281.309C72.9601 282.583 72.9817 283.821 72.7297 284.908C72.5446 285.931 72.0133 286.859 71.2252 287.536C70.9159 287.78 70.5512 287.945 70.1633 288.015C69.7754 288.086 69.3762 288.059 69.0007 287.939C68.7615 287.875 68.5372 287.765 68.3408 287.614C68.1443 287.463 67.9796 287.275 67.8561 287.061C67.7955 286.915 67.7684 286.758 67.7769 286.6Z" fill="#FAFAFA"/>
<path d="M92.2314 242.982C92.3607 242.734 92.5283 242.509 92.7281 242.313C93.3133 241.73 94.0706 241.352 94.8877 241.233C95.5309 241.138 96.1879 241.214 96.7921 241.455C97.3963 241.695 97.9264 242.09 98.3288 242.601C98.8416 243.235 99.1459 244.012 99.1998 244.825C99.1964 245.69 99.3832 246.546 99.7469 247.33C99.9958 247.706 100.367 247.983 100.798 248.115C101.266 248.251 101.75 248.326 102.238 248.338C102.742 248.338 103.26 248.338 103.8 248.41C104.369 248.441 104.916 248.636 105.376 248.972C105.613 249.165 105.801 249.412 105.924 249.692C106.043 249.976 106.093 250.284 106.068 250.592C105.997 251.194 105.746 251.761 105.348 252.218C104.948 252.688 104.459 253.072 103.908 253.349C103.368 253.622 102.799 253.845 102.245 254.105C101.688 254.338 101.171 254.656 100.712 255.048C100.262 255.455 99.9483 255.99 99.8117 256.581C99.5166 257.79 99.8117 259.101 99.7254 260.468C99.6858 261.171 99.4994 261.858 99.1782 262.484C99.0123 262.817 98.771 263.107 98.4737 263.331C98.1763 263.554 97.8309 263.706 97.4649 263.773C97.0892 263.806 96.7106 263.759 96.3543 263.635C95.9981 263.511 95.6724 263.313 95.3989 263.053C94.847 262.577 94.3818 262.01 94.0239 261.375C93.6889 260.766 93.3188 260.178 92.9153 259.612C92.5379 259.066 92.0029 258.649 91.3819 258.417C90.7584 258.234 90.0905 258.277 89.4958 258.539C88.8836 258.798 88.2958 259.111 87.7393 259.475C87.177 259.844 86.5788 260.155 85.954 260.404C85.3198 260.634 84.6489 260.746 83.9743 260.735C82.6716 260.699 81.4128 260.256 80.3749 259.468C79.3671 258.728 78.6654 257.645 78.4024 256.423C78.2565 255.846 78.2585 255.243 78.4083 254.668C78.558 254.093 78.8507 253.565 79.2591 253.133C79.6833 252.761 80.1926 252.499 80.742 252.37C81.2517 252.248 81.7687 252.159 82.2898 252.103C83.2401 252.059 84.1585 251.747 84.939 251.203C85.5914 250.615 86.0864 249.872 86.3787 249.044C86.6883 248.274 86.8898 247.51 87.1562 246.812C87.3802 246.152 87.7083 245.533 88.128 244.976C88.503 244.531 88.9227 244.126 89.3806 243.767C89.991 243.227 90.7382 242.866 91.5403 242.723C91.6817 242.701 91.8262 242.71 91.964 242.748C92.1019 242.787 92.2299 242.854 92.3394 242.946C92.0977 242.815 91.82 242.764 91.5475 242.802C90.7746 242.971 90.0611 243.344 89.4814 243.882C89.0362 244.241 88.6307 244.646 88.272 245.092C87.8781 245.639 87.5698 246.244 87.3578 246.884C87.1058 247.604 86.9114 248.324 86.6379 249.13C86.3528 249.989 85.8579 250.764 85.1981 251.383C84.3835 251.972 83.4158 252.312 82.4122 252.362C81.4259 252.514 80.3245 252.622 79.5326 253.342C79.1707 253.74 78.915 254.223 78.7892 254.747C78.6633 255.27 78.6714 255.817 78.8127 256.336C79.0694 257.475 79.7291 258.482 80.67 259.173C81.6551 259.91 82.8451 260.322 84.0751 260.353C84.7033 260.366 85.3284 260.261 85.918 260.044C86.5223 259.799 87.101 259.495 87.6457 259.137C88.1592 258.783 88.701 258.473 89.2654 258.208C89.9466 257.908 90.7129 257.862 91.4251 258.078C92.1177 258.332 92.7157 258.791 93.1384 259.396C93.5553 259.973 93.9352 260.577 94.2758 261.203C94.6162 261.795 95.0515 262.328 95.5644 262.779C95.7997 263 96.0795 263.167 96.385 263.27C96.6905 263.373 97.0146 263.41 97.3353 263.377C97.645 263.322 97.9371 263.194 98.1875 263.004C98.4378 262.813 98.6393 262.566 98.7751 262.282C99.0686 261.704 99.2401 261.072 99.279 260.425C99.351 259.137 99.0631 257.79 99.387 256.473C99.5426 255.815 99.8941 255.221 100.395 254.767C100.88 254.349 101.43 254.011 102.022 253.766C102.59 253.507 103.152 253.291 103.678 253.046C104.187 252.792 104.64 252.437 105.009 252.003C105.391 251.608 105.642 251.105 105.729 250.563C105.746 250.317 105.707 250.071 105.614 249.843C105.507 249.614 105.349 249.412 105.153 249.253C104.732 248.95 104.232 248.777 103.714 248.756C103.202 248.698 102.684 248.698 102.173 248.669C101.663 248.651 101.157 248.567 100.668 248.418C100.184 248.26 99.768 247.943 99.4878 247.518C99.1056 246.698 98.9136 245.802 98.9263 244.897C98.8936 244.113 98.6168 243.358 98.1344 242.738C97.756 242.248 97.2577 241.864 96.6877 241.624C96.1178 241.383 95.4954 241.293 94.8805 241.363C94.0979 241.47 93.3668 241.814 92.7857 242.349C92.5884 242.549 92.4033 242.76 92.2314 242.982Z" fill="#FAFAFA"/>
<path d="M80.1157 230.831C79.713 231.234 79.1849 231.488 78.6184 231.551C78.0148 231.671 77.3935 231.671 76.7899 231.551C76.0187 231.427 75.3196 231.025 74.8246 230.421C74.3909 229.781 74.1419 229.033 74.1047 228.261C74.0484 227.651 74.0897 227.037 74.2271 226.44C74.3109 225.886 74.5829 225.377 74.9974 225C74.7667 225.486 74.5974 225.999 74.4934 226.526C74.395 227.099 74.378 227.683 74.4431 228.261C74.4993 228.957 74.7295 229.628 75.1125 230.212C75.5502 230.748 76.166 231.108 76.8475 231.227C77.4107 231.346 77.9902 231.368 78.5608 231.292C79.0945 231.196 79.616 231.041 80.1157 230.831Z" fill="#FAFAFA"/>
<path d="M111.107 228.995C111.107 228.995 111.107 229.067 111.056 229.19C110.989 229.376 110.894 229.55 110.776 229.708C110.332 230.3 109.7 230.722 108.983 230.903C108.483 231.02 107.964 231.02 107.464 230.903C106.899 230.744 106.376 230.464 105.931 230.082C105.487 229.684 104.975 229.369 104.419 229.154C104.132 229.075 103.828 229.092 103.552 229.201C103.275 229.31 103.042 229.506 102.886 229.759C102.546 230.321 102.25 230.908 102 231.515C101.714 232.102 101.273 232.599 100.726 232.955C100.346 233.212 99.9175 233.39 99.4667 233.477C99.016 233.565 98.5523 233.56 98.1036 233.463C97.6548 233.366 97.2303 233.179 96.8558 232.914C96.4812 232.648 96.1644 232.31 95.9243 231.918C95.7617 231.71 95.6596 231.461 95.6292 231.198C95.6292 231.198 95.7515 231.45 96.0395 231.846C96.4537 232.4 97.0185 232.822 97.6664 233.063C98.4275 233.319 99.2563 233.286 99.9945 232.97C100.733 232.654 101.329 232.077 101.669 231.349C101.926 230.726 102.23 230.122 102.576 229.543C102.785 229.224 103.083 228.973 103.433 228.823C103.778 228.69 104.158 228.675 104.513 228.78C105.115 229.01 105.67 229.352 106.147 229.787C106.547 230.148 107.021 230.418 107.536 230.579C107.993 230.683 108.468 230.683 108.925 230.579C109.599 230.434 110.207 230.075 110.66 229.557C110.977 229.247 111.078 228.981 111.107 228.995Z" fill="#FAFAFA"/>
<path d="M116.239 257.257C115.952 257.119 115.684 256.945 115.44 256.739C114.741 256.221 114.084 255.648 113.475 255.026C113.047 254.585 112.664 254.102 112.33 253.586C111.945 252.986 111.699 252.307 111.61 251.599C111.492 250.809 111.62 250.002 111.978 249.288C112.174 248.911 112.452 248.581 112.791 248.324C113.127 248.073 113.481 247.847 113.849 247.647C114.199 247.45 114.52 247.208 114.807 246.927C115.067 246.661 115.257 246.334 115.361 245.977C115.526 245.269 115.55 244.535 115.433 243.817C115.316 243.133 115.265 242.438 115.282 241.744C115.281 241.107 115.52 240.492 115.951 240.023C116.621 239.424 117.48 239.08 118.377 239.052C118.542 239.031 118.709 239.051 118.864 239.109C119.019 239.166 119.159 239.26 119.27 239.383C118.997 239.241 118.691 239.177 118.385 239.195C117.544 239.277 116.755 239.634 116.139 240.211C115.768 240.642 115.573 241.197 115.591 241.765C115.595 242.439 115.655 243.111 115.771 243.774C115.913 244.545 115.894 245.336 115.714 246.099C115.597 246.517 115.377 246.898 115.073 247.208C114.765 247.507 114.416 247.761 114.036 247.964C113.315 248.286 112.71 248.821 112.302 249.497C111.977 250.147 111.854 250.879 111.949 251.599C112.15 252.839 112.752 253.979 113.662 254.846C115.181 256.43 116.283 257.2 116.239 257.257Z" fill="#FAFAFA"/>
<path d="M101.187 271.539C101.296 271.521 101.408 271.521 101.518 271.539C101.84 271.539 102.163 271.558 102.483 271.597C103.673 271.706 104.832 272.043 105.895 272.59C106.696 272.997 107.398 273.573 107.955 274.277C108.512 274.982 108.909 275.799 109.12 276.672C109.369 277.73 109.209 278.843 108.674 279.789C108.386 280.295 107.997 280.735 107.532 281.084C107.066 281.432 106.533 281.68 105.967 281.812C105.384 281.916 104.786 281.884 104.218 281.719C103.731 281.557 103.206 281.557 102.72 281.719C102.26 281.912 101.858 282.222 101.554 282.618C101.263 283.001 101.005 283.408 100.784 283.835C100.39 284.728 99.7349 285.481 98.9048 285.995C98.1443 286.388 97.2673 286.492 96.4356 286.29C95.7514 286.121 95.1448 285.725 94.7151 285.167C94.3913 284.758 94.1648 284.28 94.0528 283.77C93.9825 283.451 93.9654 283.123 94.0024 282.798C94.0093 282.685 94.0336 282.573 94.0744 282.467C94.063 282.893 94.1041 283.319 94.1968 283.734C94.3257 284.214 94.5593 284.659 94.8807 285.037C95.2888 285.522 95.8455 285.858 96.4644 285.995C97.233 286.164 98.037 286.055 98.732 285.685C99.4944 285.191 100.093 284.482 100.453 283.648C100.878 282.646 101.643 281.825 102.612 281.33C103.169 281.146 103.769 281.146 104.326 281.33C104.841 281.486 105.386 281.518 105.916 281.423C106.431 281.301 106.915 281.074 107.338 280.757C107.762 280.44 108.116 280.04 108.378 279.58C108.876 278.708 109.027 277.68 108.803 276.701C108.608 275.87 108.238 275.091 107.718 274.414C107.198 273.738 106.54 273.18 105.787 272.778C104.761 272.225 103.644 271.859 102.49 271.698C101.648 271.597 101.18 271.597 101.187 271.539Z" fill="#FAFAFA"/>
<path d="M87.7034 295.353C87.5644 294.825 87.3381 294.324 87.0339 293.87C86.6788 293.405 86.2171 293.033 85.6878 292.783C85.055 292.462 84.3259 292.386 83.6403 292.569C82.9548 292.753 82.3611 293.183 81.9732 293.777C81.6418 294.245 81.427 294.785 81.3469 295.353C81.3082 295.898 81.3618 296.446 81.5052 296.973C81.5052 296.973 81.3829 296.851 81.2677 296.577C81.1143 296.178 81.0504 295.751 81.0805 295.324C81.1237 294.688 81.3294 294.073 81.678 293.539C82.0932 292.854 82.7575 292.356 83.5317 292.149C84.306 291.942 85.1302 292.043 85.8317 292.431C86.4128 292.712 86.9094 293.141 87.2715 293.676C87.5099 294.028 87.6672 294.429 87.7322 294.849C87.7466 295.152 87.725 295.353 87.7034 295.353Z" fill="#FAFAFA"/>
<path d="M89.9854 305.792C89.9854 305.792 89.9207 305.453 89.6615 304.906C89.3006 304.139 88.6921 303.515 87.9338 303.135C87.3754 302.876 86.7599 302.765 86.1461 302.811C85.5323 302.858 84.9408 303.061 84.4279 303.402C83.8433 303.847 83.3538 304.405 82.9882 305.043C82.753 305.387 82.4775 305.701 82.1675 305.979C81.8153 306.278 81.3695 306.443 80.9077 306.447C80.4772 306.391 80.063 306.246 79.6912 306.022C79.3195 305.798 78.9984 305.499 78.7481 305.144C78.324 304.538 77.8093 304.002 77.2219 303.553C76.662 303.218 75.9994 303.098 75.3574 303.215C74.7889 303.31 74.2498 303.534 73.7809 303.87C73.1081 304.39 72.5453 305.038 72.1251 305.777C71.9795 306.06 71.8135 306.332 71.6284 306.591C71.7076 306.282 71.8312 305.986 71.9956 305.713C72.3813 304.918 72.9367 304.218 73.6225 303.661C74.1178 303.289 74.6957 303.042 75.307 302.941C76.0264 302.794 76.7747 302.917 77.4091 303.287C78.0327 303.747 78.5794 304.304 79.0288 304.935C79.2475 305.247 79.5276 305.512 79.8518 305.712C80.1761 305.913 80.5378 306.045 80.9149 306.101C81.6852 306.101 82.2467 305.475 82.6858 304.856C83.0889 304.188 83.6198 303.606 84.248 303.143C84.7117 302.829 85.2402 302.623 85.7941 302.542C86.3481 302.46 86.9133 302.504 87.4478 302.671C87.9824 302.838 88.4726 303.123 88.882 303.505C89.2914 303.887 89.6095 304.356 89.8127 304.878C89.9026 305.109 89.9631 305.351 89.9926 305.597C90.0286 305.705 90.0286 305.792 89.9854 305.792Z" fill="#FAFAFA"/>
<path d="M95.5356 279.675C94.8899 279.277 94.1922 278.969 93.4624 278.761C92.6712 278.568 91.8509 278.524 91.0436 278.632C90.0558 278.748 89.1142 279.115 88.308 279.697C87.5147 280.29 86.9137 281.104 86.5803 282.037C86.3078 282.802 86.219 283.621 86.3211 284.427C86.456 285.17 86.7139 285.885 87.0842 286.543C87.0842 286.543 86.9042 286.399 86.6811 286.061C86.3687 285.575 86.1558 285.031 86.0548 284.463C85.9012 283.517 86.0091 282.548 86.367 281.66C86.7248 280.772 87.3189 279.998 88.0848 279.423C88.931 278.809 89.9243 278.429 90.9644 278.322C91.8149 278.22 92.6774 278.293 93.4984 278.538C94.0496 278.687 94.5709 278.931 95.0389 279.258C95.3989 279.517 95.55 279.661 95.5356 279.675Z" fill="#FAFAFA"/>
</svg>
