<svg width="38" height="38" viewBox="0 0 38 38" fill="none" xmlns="http://www.w3.org/2000/svg">
<rect width="38" height="38" rx="15.2381" fill="#ECECF8"/>
<path d="M25.4002 12.6001H12.6C11.72 12.6001 11.008 13.3201 11.008 14.2001L11 23.8003C11 24.6803 11.72 25.4003 12.6 25.4003H25.4002C26.2802 25.4003 27.0002 24.6803 27.0002 23.8003V14.2001C27.0002 13.3201 26.2802 12.6001 25.4002 12.6001ZM25.0802 16.0001L19.4241 19.5362C19.1681 19.6962 18.8321 19.6962 18.5761 19.5362L12.92 16.0001C12.8398 15.9551 12.7696 15.8943 12.7135 15.8213C12.6575 15.7483 12.6169 15.6648 12.5941 15.5756C12.5713 15.4865 12.5668 15.3937 12.5809 15.3028C12.5951 15.2119 12.6275 15.1248 12.6762 15.0468C12.725 14.9688 12.7891 14.9015 12.8646 14.8489C12.9401 14.7964 13.0255 14.7597 13.1156 14.7412C13.2057 14.7226 13.2987 14.7225 13.3888 14.7409C13.4789 14.7593 13.5644 14.7958 13.64 14.8481L19.0001 18.2002L24.3602 14.8481C24.4358 14.7958 24.5213 14.7593 24.6114 14.7409C24.7016 14.7225 24.7945 14.7226 24.8846 14.7412C24.9747 14.7597 25.0601 14.7964 25.1356 14.8489C25.2111 14.9015 25.2752 14.9688 25.324 15.0468C25.3727 15.1248 25.4052 15.2119 25.4193 15.3028C25.4334 15.3937 25.4289 15.4865 25.4061 15.5756C25.3834 15.6648 25.3427 15.7483 25.2867 15.8213C25.2307 15.8943 25.1604 15.9551 25.0802 16.0001Z" fill="#A6A6C5"/>
</svg>
