<svg width="124" height="23" viewBox="0 0 124 23" fill="none" xmlns="http://www.w3.org/2000/svg">
<g clip-path="url(#clip0_3201_49463)">
<path d="M18.7421 13.5666C18.5864 13.5666 18.4307 13.5064 18.3117 13.3891C18.0736 13.1544 18.0736 12.7723 18.3117 12.5376C20.5921 10.2903 20.6898 6.68602 18.5376 4.32733L18.0705 3.86702C16.1686 2.11304 13.6898 1.16836 11.0797 1.20446C8.46349 1.24357 6.00296 2.26949 4.14994 4.09266C3.91182 4.32733 3.52412 4.32733 3.28601 4.09266C3.04789 3.858 3.04789 3.47591 3.28601 3.24124C5.36494 1.19544 8.12463 0.0431654 11.0614 0.00104579C13.9859 -0.0380652 16.7792 1.02094 18.9131 2.99454C18.9192 2.99755 18.9222 3.00357 18.9283 3.00658L19.4137 3.48494C19.4137 3.48494 19.429 3.49998 19.4351 3.506C22.0361 6.34305 21.92 10.6814 19.1756 13.386C19.0566 13.5034 18.9009 13.5635 18.7452 13.5635L18.7421 13.5666Z" fill="#0D3B66"/>
<path d="M3.71864 19.0774C3.56295 19.0774 3.40726 19.0172 3.2882 18.8999C-1.09556 14.5827 -1.09556 7.55771 3.28515 3.24045C3.52326 3.00579 3.91096 3.00579 4.14908 3.24045C4.3872 3.47512 4.3872 3.8572 4.14908 4.09187C0.244602 7.93979 0.244602 14.2006 4.14908 18.0485C4.3872 18.2832 4.3872 18.6652 4.14908 18.8999C4.03002 19.0172 3.87433 19.0774 3.71864 19.0774Z" fill="#F3B53F"/>
<path d="M14.0248 15.4917C12.0801 15.4917 10.2515 14.7456 8.87781 13.3887C8.63969 13.1541 8.63969 12.772 8.87781 12.5373C9.11592 12.3027 9.50362 12.3027 9.74174 12.5373C10.8865 13.6655 12.4068 14.2853 14.0278 14.2853C15.6488 14.2853 17.1691 13.6655 18.3139 12.5373C18.552 12.3027 18.9397 12.3027 19.1778 12.5373C19.4159 12.772 19.4159 13.1541 19.1778 13.3887C17.8041 14.7426 15.9755 15.4917 14.0309 15.4917H14.0248Z" fill="#0D3B66"/>
<path d="M9.31041 13.5647C9.15472 13.5647 8.99903 13.5045 8.87997 13.3872C7.50623 12.0334 6.74609 10.2312 6.74609 8.31481C6.74609 6.39836 7.50318 4.59625 8.87997 3.24241C9.11809 3.00774 9.50579 3.00774 9.7439 3.24241C9.98202 3.47707 9.98202 3.85916 9.7439 4.09382C8.59912 5.22203 7.97025 6.72028 7.97025 8.31781C7.97025 9.91535 8.59912 11.4136 9.7439 12.5418C9.98202 12.7765 9.98202 13.1586 9.7439 13.3932C9.62485 13.5106 9.46915 13.5707 9.31346 13.5707L9.31041 13.5647Z" fill="#B1CF41"/>
<path d="M18.7402 19.0777C18.5845 19.0777 18.4288 19.0175 18.3098 18.9002C18.0717 18.6655 18.0717 18.2834 18.3098 18.0488C20.1597 16.2256 21.2007 13.8007 21.2404 11.2194C21.2801 8.6501 20.3185 6.20416 18.5387 4.32984L18.0594 3.85749C17.8213 3.62283 17.8213 3.24074 18.0594 3.00608C18.2976 2.77141 18.6853 2.77141 18.9234 3.00608L19.4088 3.48444C19.4088 3.48444 19.4179 3.49346 19.421 3.49948C21.4236 5.60245 22.5012 8.34925 22.4585 11.2374C22.4157 14.1317 21.2465 16.8514 19.1706 18.9002C19.0516 19.0175 18.8959 19.0777 18.7402 19.0777Z" fill="#5CC8C0"/>
<path d="M9.30824 4.27026C9.15255 4.27026 8.99686 4.21008 8.87781 4.09275C8.63969 3.85809 8.63969 3.476 8.87781 3.24133C11.6222 0.536657 16.0243 0.425341 18.9031 2.98561C19.1534 3.20824 19.1717 3.59033 18.9458 3.83402C18.7199 4.08072 18.3353 4.09877 18.0849 3.87614C15.6916 1.74308 12.0252 1.83635 9.74174 4.08974C9.62268 4.20708 9.46699 4.26725 9.3113 4.26725L9.30824 4.27026Z" fill="#B1CF41"/>
<path d="M11.2273 22.1417C8.22647 22.1417 5.40572 20.9894 3.28406 18.8985C3.04594 18.6638 3.04594 18.2818 3.28406 18.0471C3.52217 17.8124 3.90987 17.8124 4.14799 18.0471C6.0407 19.9124 8.55312 20.9383 11.2273 20.9383C13.9015 20.9383 16.417 19.9124 18.3067 18.0471C18.5448 17.8124 18.9325 17.8124 19.1706 18.0471C19.4087 18.2818 19.4087 18.6638 19.1706 18.8985C17.0489 20.9894 14.2282 22.1417 11.2273 22.1417Z" fill="#D72E6D"/>
<path d="M38.7434 15.4294C38.5542 15.4294 38.3649 15.3572 38.2184 15.2158C37.9283 14.9299 37.9283 14.4666 38.2184 14.1838C39.9737 12.4539 39.9737 9.64093 38.2184 7.91403C36.463 6.18712 33.6117 6.18411 31.8564 7.91403C31.5664 8.19984 31.0963 8.19984 30.8093 7.91403C30.5193 7.62821 30.5193 7.1649 30.8093 6.8821C33.1416 4.58357 36.9362 4.58357 39.2685 6.8821C40.398 7.99526 41.0208 9.47546 41.0208 11.0519C41.0208 12.6284 40.398 14.1086 39.2685 15.2218C39.125 15.3632 38.9327 15.4354 38.7434 15.4354V15.4294Z" fill="black"/>
<path d="M54.4176 16.9689C54.0085 16.9689 53.6758 16.641 53.6758 16.2378V10.5397C53.6758 10.1365 54.0085 9.80859 54.4176 9.80859C54.8267 9.80859 55.1594 10.1365 55.1594 10.5397V16.2378C55.1594 16.641 54.8267 16.9689 54.4176 16.9689Z" fill="black"/>
<path d="M59.6753 12.8278H54.4215C54.0124 12.8278 53.6797 12.4999 53.6797 12.0967C53.6797 11.6936 54.0124 11.3656 54.4215 11.3656H59.6753C61.0063 11.3656 62.087 10.3006 62.087 8.98889C62.087 8.58574 62.4197 8.25781 62.8288 8.25781C63.2379 8.25781 63.5706 8.58574 63.5706 8.98889C63.5706 11.1039 61.8244 12.8278 59.6753 12.8278Z" fill="black"/>
<path d="M69.1324 16.969C68.7234 16.969 68.3906 16.6411 68.3906 16.2379V5.87951C68.3906 5.47637 68.7234 5.14844 69.1324 5.14844C69.5415 5.14844 69.8743 5.47637 69.8743 5.87951V16.2379C69.8743 16.6411 69.5415 16.969 69.1324 16.969Z" fill="black"/>
<path d="M107.494 16.969C107.085 16.969 106.752 16.6411 106.752 16.2379V5.87951C106.752 5.47637 107.085 5.14844 107.494 5.14844C107.903 5.14844 108.236 5.47637 108.236 5.87951V16.2379C108.236 16.6411 107.903 16.969 107.494 16.969Z" fill="black"/>
<path d="M80.1681 16.969C77.442 16.969 75.2227 14.7818 75.2227 12.0952V5.87951C75.2227 5.47637 75.5554 5.14844 75.9645 5.14844C76.3735 5.14844 76.7063 5.47637 76.7063 5.87951V12.0952C76.7063 13.9755 78.2601 15.5068 80.1681 15.5068C80.5772 15.5068 80.9099 15.8348 80.9099 16.2379C80.9099 16.6411 80.5772 16.969 80.1681 16.969Z" fill="black"/>
<path d="M88.0504 16.969C87.6413 16.969 87.3086 16.6411 87.3086 16.2379V5.87951C87.3086 5.47637 87.6413 5.14844 88.0504 5.14844C88.4595 5.14844 88.7922 5.47637 88.7922 5.87951V16.2379C88.7922 16.6411 88.4595 16.969 88.0504 16.969Z" fill="black"/>
<path d="M96.4567 16.7524C96.0476 16.7524 95.7148 16.4244 95.7148 16.0213V5.87951C95.7148 5.47637 96.0476 5.14844 96.4567 5.14844C96.8657 5.14844 97.1985 5.47637 97.1985 5.87951V16.0213C97.1985 16.4244 96.8657 16.7524 96.4567 16.7524Z" fill="black"/>
<path d="M96.4606 16.9691C96.2439 16.9691 96.0271 16.8758 95.8806 16.6953L87.4733 6.33687C87.2169 6.02097 87.2688 5.56067 87.5893 5.31096C87.9068 5.05824 88.3769 5.10939 88.6303 5.42528L97.0376 15.7837C97.294 16.0996 97.2421 16.5599 96.9216 16.8096C96.7842 16.9179 96.6224 16.9691 96.4576 16.9691H96.4606Z" fill="black"/>
<path d="M100.136 16.9708C99.7273 16.9708 99.3945 16.6428 99.3945 16.2397V10.024C99.3945 9.6209 99.7273 9.29297 100.136 9.29297C100.545 9.29297 100.878 9.6209 100.878 10.024V16.2397C100.878 16.6428 100.545 16.9708 100.136 16.9708Z" fill="black"/>
<path d="M119.054 16.9682C118.645 16.9682 118.312 16.6403 118.312 16.2371V12.0944C118.312 11.6912 118.645 11.3633 119.054 11.3633C119.463 11.3633 119.796 11.6912 119.796 12.0944V16.2371C119.796 16.6403 119.463 16.9682 119.054 16.9682Z" fill="black"/>
<path d="M119.054 12.8271C118.914 12.8271 118.77 12.788 118.645 12.7038C118.303 12.4811 118.212 12.0268 118.441 11.6899L122.644 5.47424C122.87 5.13729 123.331 5.04703 123.673 5.27267C124.015 5.4953 124.107 5.94959 123.878 6.28655L119.674 12.5022C119.531 12.7128 119.296 12.8271 119.057 12.8271H119.054Z" fill="black"/>
<path d="M35.0361 16.94C33.5037 16.94 31.9712 16.3654 30.805 15.2161C29.6755 14.103 29.0527 12.6228 29.0527 11.0463C29.0527 9.46983 29.6755 7.98963 30.805 6.87647C31.095 6.59066 31.5652 6.59066 31.8521 6.87647C32.1391 7.16228 32.1421 7.62559 31.8521 7.9084C30.0968 9.63831 30.0968 12.4513 31.8521 14.1782C33.6074 15.9081 36.4587 15.9081 38.2141 14.1782C38.5041 13.8924 38.9742 13.8924 39.2612 14.1782C39.5512 14.464 39.5512 14.9273 39.2612 15.2101C38.095 16.3594 36.5625 16.934 35.03 16.934L35.0361 16.94Z" fill="black"/>
<path d="M54.4176 11.0873C54.0085 11.0873 53.6758 10.7594 53.6758 10.3562V5.87951C53.6758 5.47637 54.0085 5.14844 54.4176 5.14844C54.8267 5.14844 55.1594 5.47637 55.1594 5.87951V10.3562C55.1594 10.7594 54.8267 11.0873 54.4176 11.0873Z" fill="black"/>
<path d="M62.8288 9.71841C62.4197 9.71841 62.087 9.39048 62.087 8.98734C62.087 7.67561 61.0063 6.61059 59.6753 6.61059H54.4215C54.0124 6.61059 53.6797 6.28266 53.6797 5.87951C53.6797 5.47637 54.0124 5.14844 54.4215 5.14844H59.6753C61.8214 5.14844 63.5706 6.86932 63.5706 8.98734C63.5706 9.39048 63.2379 9.71841 62.8288 9.71841Z" fill="black"/>
<path d="M42.9801 16.9689C42.571 16.9689 42.2383 16.641 42.2383 16.2378V10.5397C42.2383 10.1365 42.571 9.80859 42.9801 9.80859C43.3892 9.80859 43.7219 10.1365 43.7219 10.5397V16.2378C43.7219 16.641 43.3892 16.9689 42.9801 16.9689Z" fill="black"/>
<path d="M48.2359 12.8278H42.9821C42.573 12.8278 42.2402 12.4999 42.2402 12.0967C42.2402 11.6936 42.573 11.3656 42.9821 11.3656H48.2359C49.5669 11.3656 50.6475 10.3006 50.6475 8.98889C50.6475 8.58574 50.9803 8.25781 51.3894 8.25781C51.7984 8.25781 52.1312 8.58574 52.1312 8.98889C52.1312 11.1039 50.385 12.8278 48.2359 12.8278Z" fill="black"/>
<path d="M42.9801 11.0873C42.571 11.0873 42.2383 10.7594 42.2383 10.3562V5.87951C42.2383 5.47637 42.571 5.14844 42.9801 5.14844C43.3892 5.14844 43.7219 5.47637 43.7219 5.87951V10.3562C43.7219 10.7594 43.3892 11.0873 42.9801 11.0873Z" fill="black"/>
<path d="M51.3894 9.71841C50.9803 9.71841 50.6475 9.39048 50.6475 8.98734C50.6475 7.67561 49.5669 6.61059 48.2359 6.61059H42.9821C42.573 6.61059 42.2402 6.28266 42.2402 5.87951C42.2402 5.47637 42.573 5.14844 42.9821 5.14844H48.2359C50.3819 5.14844 52.1312 6.86932 52.1312 8.98734C52.1312 9.39048 51.7984 9.71841 51.3894 9.71841Z" fill="black"/>
<path d="M73.3366 6.61059H64.9293C64.5203 6.61059 64.1875 6.28266 64.1875 5.87951C64.1875 5.47637 64.5203 5.14844 64.9293 5.14844H73.3366C73.7457 5.14844 74.0784 5.47637 74.0784 5.87951C74.0784 6.28266 73.7457 6.61059 73.3366 6.61059Z" fill="black"/>
<path d="M80.1676 16.969C79.7585 16.969 79.4258 16.6411 79.4258 16.2379C79.4258 15.8348 79.7585 15.5068 80.1676 15.5068C82.0756 15.5068 83.6294 13.9755 83.6294 12.0952V5.87951C83.6294 5.47637 83.9622 5.14844 84.3713 5.14844C84.7803 5.14844 85.1131 5.47637 85.1131 5.87951V12.0952C85.1131 14.7818 82.8937 16.969 80.1676 16.969Z" fill="black"/>
<path d="M100.136 11.4844C99.7273 11.4844 99.3945 11.1565 99.3945 10.7533V5.87951C99.3945 5.47637 99.7273 5.14844 100.136 5.14844C100.545 5.14844 100.878 5.47637 100.878 5.87951V10.7533C100.878 11.1565 100.545 11.4844 100.136 11.4844Z" fill="black"/>
<path d="M111.698 6.61059H103.291C102.882 6.61059 102.549 6.28266 102.549 5.87951C102.549 5.47637 102.882 5.14844 103.291 5.14844H111.698C112.107 5.14844 112.44 5.47637 112.44 5.87951C112.44 6.28266 112.107 6.61059 111.698 6.61059Z" fill="black"/>
<path d="M119.054 12.8263C118.812 12.8263 118.58 12.712 118.437 12.5014L114.233 6.28576C114.007 5.94881 114.099 5.49753 114.438 5.27189C114.78 5.04625 115.238 5.13951 115.467 5.47346L119.67 11.6891C119.896 12.0261 119.805 12.4773 119.466 12.703C119.341 12.7872 119.197 12.8263 119.057 12.8263H119.054Z" fill="black"/>
</g>
<defs>
<clipPath id="clip0_3201_49463">
<rect width="124" height="22.1429" fill="white"/>
</clipPath>
</defs>
</svg>
