<svg width="180" height="32" viewBox="0 0 180 32" fill="none" xmlns="http://www.w3.org/2000/svg">
<g clip-path="url(#clip0_3201_42430)">
<path d="M27.0854 19.6057C26.8604 19.6057 26.6354 19.5188 26.4633 19.3492C26.1192 19.0101 26.1192 18.4579 26.4633 18.1188C29.7589 14.871 29.9001 9.66226 26.7898 6.25356L26.1148 5.58835C23.3663 3.05356 19.784 1.68835 16.012 1.74052C12.2311 1.79704 8.67525 3.27965 5.99733 5.91443C5.65321 6.25356 5.09292 6.25356 4.74881 5.91443C4.40469 5.5753 4.40469 5.02313 4.74881 4.684C7.7532 1.72748 11.7414 0.0622588 15.9855 0.00138926C20.2119 -0.0551325 24.2486 1.4753 27.3324 4.32748C27.3413 4.33182 27.3457 4.34052 27.3545 4.34487L28.056 5.03617C28.056 5.03617 28.078 5.05791 28.0869 5.06661C31.8456 9.16661 31.678 15.4362 27.7119 19.3449C27.5398 19.5144 27.3148 19.6014 27.0898 19.6014L27.0854 19.6057Z" fill="white"/>
<path d="M5.37404 27.5698C5.14904 27.5698 4.92404 27.4828 4.75198 27.3132C-1.58326 21.0741 -1.58326 10.9219 4.74757 4.68281C5.09169 4.34368 5.65198 4.34368 5.99609 4.68281C6.3402 5.02195 6.3402 5.57412 5.99609 5.91325C0.35349 11.4741 0.35349 20.5219 5.99609 26.0828C6.3402 26.4219 6.3402 26.9741 5.99609 27.3132C5.82403 27.4828 5.59903 27.5698 5.37404 27.5698Z" fill="#F3B53F"/>
<path d="M20.268 22.3878C17.4578 22.3878 14.8151 21.3095 12.8299 19.3487C12.4857 19.0095 12.4857 18.4574 12.8299 18.1182C13.174 17.7791 13.7343 17.7791 14.0784 18.1182C15.7328 19.7487 17.9298 20.6443 20.2724 20.6443C22.6151 20.6443 24.8121 19.7487 26.4665 18.1182C26.8106 17.7791 27.3709 17.7791 27.715 18.1182C28.0591 18.4574 28.0591 19.0095 27.715 19.3487C25.7298 21.3052 23.0871 22.3878 20.2769 22.3878H20.268Z" fill="white"/>
<path d="M13.455 19.6045C13.23 19.6045 13.005 19.5175 12.833 19.348C10.8477 17.3914 9.74919 14.7871 9.74919 12.0175C9.74919 9.24796 10.8433 6.64361 12.833 4.68709C13.1771 4.34796 13.7374 4.34796 14.0815 4.68709C14.4256 5.02622 14.4256 5.57839 14.0815 5.91752C12.4271 7.54796 11.5183 9.71317 11.5183 12.0219C11.5183 14.3306 12.4271 16.4958 14.0815 18.1262C14.4256 18.4653 14.4256 19.0175 14.0815 19.3567C13.9095 19.5262 13.6845 19.6132 13.4595 19.6132L13.455 19.6045Z" fill="#B1CF41"/>
<path d="M27.0826 27.5702C26.8576 27.5702 26.6326 27.4832 26.4606 27.3136C26.1165 26.9745 26.1165 26.4223 26.4606 26.0832C29.1341 23.4484 30.6385 19.9441 30.6958 16.2136C30.7532 12.5006 29.3635 8.96581 26.7915 6.25711L26.0988 5.5745C25.7547 5.23537 25.7547 4.6832 26.0988 4.34407C26.4429 4.00494 27.0032 4.00494 27.3473 4.34407L28.0488 5.03537C28.0488 5.03537 28.062 5.04842 28.0664 5.05711C30.9605 8.09624 32.5179 12.0658 32.4561 16.2397C32.3944 20.4223 30.7047 24.3528 27.7047 27.3136C27.5326 27.4832 27.3076 27.5702 27.0826 27.5702Z" fill="#5CC8C0"/>
<path d="M13.4519 6.16958C13.2269 6.16958 13.0019 6.08262 12.8299 5.91306C12.4857 5.57393 12.4857 5.02175 12.8299 4.68262C16.796 0.773927 23.1577 0.613057 27.318 4.31306C27.6797 4.6348 27.7062 5.18697 27.3797 5.53914C27.0533 5.89567 26.4974 5.92175 26.1356 5.60001C22.6768 2.51741 17.3784 2.65219 14.0784 5.90871C13.9063 6.07828 13.6813 6.16523 13.4563 6.16523L13.4519 6.16958Z" fill="#B1CF41"/>
<path d="M16.2253 31.9996C11.8886 31.9996 7.81214 30.3344 4.74599 27.3127C4.40187 26.9735 4.40187 26.4214 4.74599 26.0822C5.0901 25.7431 5.65039 25.7431 5.99451 26.0822C8.72978 28.7779 12.3606 30.2605 16.2253 30.2605C20.09 30.2605 23.7252 28.7779 26.4561 26.0822C26.8002 25.7431 27.3605 25.7431 27.7046 26.0822C28.0487 26.4214 28.0487 26.9735 27.7046 27.3127C24.6385 30.3344 20.562 31.9996 16.2253 31.9996Z" fill="#D72E6D"/>
<path d="M55.9905 22.2964C55.717 22.2964 55.4434 22.192 55.2317 21.9877C54.8126 21.5746 54.8126 20.9051 55.2317 20.4964C57.7684 17.9964 57.7684 13.9311 55.2317 11.4355C52.6949 8.93984 48.5744 8.93549 46.0376 11.4355C45.6185 11.8485 44.9391 11.8485 44.5244 11.4355C44.1053 11.0224 44.1053 10.3529 44.5244 9.94419C47.895 6.62245 53.3788 6.62245 56.7493 9.94419C58.3817 11.5529 59.2816 13.692 59.2816 15.9703C59.2816 18.2485 58.3817 20.3877 56.7493 21.9964C56.542 22.2007 56.264 22.3051 55.9905 22.3051V22.2964Z" fill="white"/>
<path d="M78.6422 24.5226C78.051 24.5226 77.5702 24.0487 77.5702 23.4661V15.2313C77.5702 14.6487 78.051 14.1748 78.6422 14.1748C79.2334 14.1748 79.7143 14.6487 79.7143 15.2313V23.4661C79.7143 24.0487 79.2334 24.5226 78.6422 24.5226Z" fill="white"/>
<path d="M86.2404 18.5353H78.6479C78.0567 18.5353 77.5758 18.0613 77.5758 17.4787C77.5758 16.8961 78.0567 16.4222 78.6479 16.4222H86.2404C88.164 16.4222 89.7257 14.8831 89.7257 12.9874C89.7257 12.4048 90.2066 11.9309 90.7978 11.9309C91.3889 11.9309 91.8698 12.4048 91.8698 12.9874C91.8698 16.044 89.3463 18.5353 86.2404 18.5353Z" fill="white"/>
<path d="M99.9075 24.5228C99.3164 24.5228 98.8355 24.0489 98.8355 23.4663V8.49671C98.8355 7.9141 99.3164 7.44019 99.9075 7.44019C100.499 7.44019 100.98 7.9141 100.98 8.49671V23.4663C100.98 24.0489 100.499 24.5228 99.9075 24.5228Z" fill="white"/>
<path d="M155.346 24.5228C154.755 24.5228 154.274 24.0489 154.274 23.4663V8.49671C154.274 7.9141 154.755 7.44019 155.346 7.44019C155.937 7.44019 156.418 7.9141 156.418 8.49671V23.4663C156.418 24.0489 155.937 24.5228 155.346 24.5228Z" fill="white"/>
<path d="M115.856 24.5228C111.916 24.5228 108.709 21.3619 108.709 17.4793V8.49671C108.709 7.9141 109.19 7.44019 109.781 7.44019C110.372 7.44019 110.853 7.9141 110.853 8.49671V17.4793C110.853 20.1967 113.099 22.4098 115.856 22.4098C116.447 22.4098 116.928 22.8837 116.928 23.4663C116.928 24.0489 116.447 24.5228 115.856 24.5228Z" fill="white"/>
<path d="M127.247 24.5228C126.656 24.5228 126.175 24.0489 126.175 23.4663V8.49671C126.175 7.9141 126.656 7.44019 127.247 7.44019C127.838 7.44019 128.319 7.9141 128.319 8.49671V23.4663C128.319 24.0489 127.838 24.5228 127.247 24.5228Z" fill="white"/>
<path d="M139.395 24.2097C138.804 24.2097 138.323 23.7358 138.323 23.1532V8.49671C138.323 7.9141 138.804 7.44019 139.395 7.44019C139.987 7.44019 140.467 7.9141 140.467 8.49671V23.1532C140.467 23.7358 139.987 24.2097 139.395 24.2097Z" fill="white"/>
<path d="M139.401 24.5229C139.088 24.5229 138.775 24.3881 138.563 24.1272L126.413 9.15765C126.042 8.70113 126.117 8.03591 126.581 7.67504C127.039 7.30982 127.719 7.38373 128.085 7.84026L140.235 22.8098C140.606 23.2663 140.531 23.9316 140.067 24.2924C139.869 24.449 139.635 24.5229 139.397 24.5229H139.401Z" fill="white"/>
<path d="M144.713 24.5225C144.122 24.5225 143.641 24.0486 143.641 23.466V14.4834C143.641 13.9008 144.122 13.4269 144.713 13.4269C145.304 13.4269 145.785 13.9008 145.785 14.4834V23.466C145.785 24.0486 145.304 24.5225 144.713 24.5225Z" fill="white"/>
<path d="M172.053 24.5216C171.462 24.5216 170.981 24.0477 170.981 23.4651V17.4782C170.981 16.8955 171.462 16.4216 172.053 16.4216C172.644 16.4216 173.125 16.8955 173.125 17.4782V23.4651C173.125 24.0477 172.644 24.5216 172.053 24.5216Z" fill="white"/>
<path d="M172.053 18.5356C171.85 18.5356 171.642 18.4791 171.462 18.3574C170.967 18.0356 170.835 17.3791 171.166 16.8922L177.241 7.90956C177.567 7.4226 178.234 7.29217 178.728 7.61826C179.222 7.93999 179.354 8.59652 179.023 9.08347L172.948 18.0661C172.741 18.3704 172.401 18.5356 172.057 18.5356H172.053Z" fill="white"/>
<path d="M50.6329 24.4795C48.4182 24.4795 46.2035 23.649 44.5182 21.9882C42.8859 20.3795 41.9859 18.2404 41.9859 15.9621C41.9859 13.6838 42.8859 11.5447 44.5182 9.936C44.9373 9.52296 45.6167 9.52296 46.0314 9.936C46.4461 10.349 46.4506 11.0186 46.0314 11.4273C43.4947 13.9273 43.4947 17.9925 46.0314 20.4882C48.5682 22.9882 52.6887 22.9882 55.2255 20.4882C55.6446 20.0751 56.324 20.0751 56.7387 20.4882C57.1578 20.9012 57.1578 21.5708 56.7387 21.9795C55.0534 23.6404 52.8387 24.4708 50.6241 24.4708L50.6329 24.4795Z" fill="white"/>
<path d="M78.6422 16.0228C78.051 16.0228 77.5702 15.5489 77.5702 14.9663V8.49671C77.5702 7.9141 78.051 7.44019 78.6422 7.44019C79.2334 7.44019 79.7143 7.9141 79.7143 8.49671V14.9663C79.7143 15.5489 79.2334 16.0228 78.6422 16.0228Z" fill="white"/>
<path d="M90.7978 14.0445C90.2066 14.0445 89.7257 13.5706 89.7257 12.988C89.7257 11.0924 88.164 9.55323 86.2404 9.55323H78.6479C78.0567 9.55323 77.5758 9.07932 77.5758 8.49671C77.5758 7.9141 78.0567 7.44019 78.6479 7.44019H86.2404C89.3419 7.44019 91.8698 9.92714 91.8698 12.988C91.8698 13.5706 91.3889 14.0445 90.7978 14.0445Z" fill="white"/>
<path d="M62.1132 24.5226C61.522 24.5226 61.0411 24.0487 61.0411 23.4661V15.2313C61.0411 14.6487 61.522 14.1748 62.1132 14.1748C62.7043 14.1748 63.1852 14.6487 63.1852 15.2313V23.4661C63.1852 24.0487 62.7043 24.5226 62.1132 24.5226Z" fill="white"/>
<path d="M69.7086 18.5353H62.116C61.5248 18.5353 61.0439 18.0613 61.0439 17.4787C61.0439 16.8961 61.5248 16.4222 62.116 16.4222H69.7086C71.6321 16.4222 73.1938 14.8831 73.1938 12.9874C73.1938 12.4048 73.6747 11.9309 74.2659 11.9309C74.8571 11.9309 75.3379 12.4048 75.3379 12.9874C75.3379 16.044 72.8144 18.5353 69.7086 18.5353Z" fill="white"/>
<path d="M62.1132 16.0228C61.522 16.0228 61.0411 15.5489 61.0411 14.9663V8.49671C61.0411 7.9141 61.522 7.44019 62.1132 7.44019C62.7043 7.44019 63.1852 7.9141 63.1852 8.49671V14.9663C63.1852 15.5489 62.7043 16.0228 62.1132 16.0228Z" fill="white"/>
<path d="M74.2659 14.0445C73.6747 14.0445 73.1938 13.5706 73.1938 12.988C73.1938 11.0924 71.6321 9.55323 69.7086 9.55323H62.116C61.5248 9.55323 61.0439 9.07932 61.0439 8.49671C61.0439 7.9141 61.5248 7.44019 62.116 7.44019H69.7086C72.81 7.44019 75.3379 9.92714 75.3379 12.988C75.3379 13.5706 74.8571 14.0445 74.2659 14.0445Z" fill="white"/>
<path d="M105.983 9.55323H93.8333C93.2422 9.55323 92.7613 9.07932 92.7613 8.49671C92.7613 7.9141 93.2422 7.44019 93.8333 7.44019H105.983C106.574 7.44019 107.055 7.9141 107.055 8.49671C107.055 9.07932 106.574 9.55323 105.983 9.55323Z" fill="white"/>
<path d="M115.855 24.5228C115.264 24.5228 114.783 24.0489 114.783 23.4663C114.783 22.8837 115.264 22.4098 115.855 22.4098C118.612 22.4098 120.858 20.1967 120.858 17.4793V8.49671C120.858 7.9141 121.339 7.44019 121.93 7.44019C122.521 7.44019 123.002 7.9141 123.002 8.49671V17.4793C123.002 21.3619 119.795 24.5228 115.855 24.5228Z" fill="white"/>
<path d="M144.713 16.5967C144.122 16.5967 143.641 16.1228 143.641 15.5402V8.49671C143.641 7.9141 144.122 7.44019 144.713 7.44019C145.304 7.44019 145.785 7.9141 145.785 8.49671V15.5402C145.785 16.1228 145.304 16.5967 144.713 16.5967Z" fill="white"/>
<path d="M161.422 9.55323H149.272C148.68 9.55323 148.2 9.07932 148.2 8.49671C148.2 7.9141 148.68 7.44019 149.272 7.44019H161.422C162.013 7.44019 162.494 7.9141 162.494 8.49671C162.494 9.07932 162.013 9.55323 161.422 9.55323Z" fill="white"/>
<path d="M172.052 18.536C171.703 18.536 171.368 18.3708 171.16 18.0664L165.086 9.08381C164.759 8.59685 164.891 7.94468 165.381 7.61859C165.875 7.2925 166.537 7.42729 166.868 7.90989L172.943 16.8925C173.269 17.3795 173.137 18.0316 172.647 18.3577C172.466 18.4795 172.259 18.536 172.056 18.536H172.052Z" fill="white"/>
</g>
<defs>
<clipPath id="clip0_3201_42430">
<rect width="179.2" height="32" fill="white"/>
</clipPath>
</defs>
</svg>
