<svg width="40" height="40" viewBox="0 0 40 40" fill="none" xmlns="http://www.w3.org/2000/svg">
<rect width="40" height="40" rx="14.5455" fill="#F2F0F6"/>
<path d="M28.6191 16.45C27.5691 11.83 23.5391 9.75 19.9991 9.75C19.9991 9.75 19.9991 9.75 19.9891 9.75C16.4591 9.75 12.4191 11.82 11.3691 16.44C10.1991 21.6 13.3591 25.97 16.2191 28.72C17.2791 29.74 18.6391 30.25 19.9991 30.25C21.3591 30.25 22.7191 29.74 23.7691 28.72C26.6291 25.97 29.7891 21.61 28.6191 16.45ZM19.9991 21.46C18.2591 21.46 16.8491 20.05 16.8491 18.31C16.8491 16.57 18.2591 15.16 19.9991 15.16C21.7391 15.16 23.1491 16.57 23.1491 18.31C23.1491 20.05 21.7391 21.46 19.9991 21.46Z" fill="#727586"/>
</svg>
