<svg width="17" height="17" viewBox="0 0 17 17" fill="none" xmlns="http://www.w3.org/2000/svg">
<path fill-rule="evenodd" clip-rule="evenodd" d="M16.2914 15.033C16.6364 15.033 16.9164 15.313 16.9164 15.658C16.9164 16.003 16.6364 16.283 16.2914 16.283H10.2472C9.90224 16.283 9.62224 16.003 9.62224 15.658C9.62224 15.313 9.90224 15.033 10.2472 15.033H16.2914ZM12.4296 1.0447C12.4712 1.0772 13.8654 2.16054 13.8654 2.16054C14.3721 2.4622 14.7679 3.00137 14.9179 3.6397C15.0671 4.27137 14.9587 4.92304 14.6112 5.47387C14.6089 5.47754 14.6066 5.48117 14.5986 5.49197L14.5923 5.50032C14.5359 5.57465 14.2907 5.8847 13.0532 7.43519C13.0417 7.45551 13.0286 7.47454 13.0144 7.49304C12.9935 7.5203 12.9708 7.54535 12.9466 7.56817C12.8622 7.67445 12.773 7.78612 12.6793 7.90353L12.4893 8.14142C12.0974 8.63223 11.6326 9.21424 11.0811 9.90455L10.798 10.2588C9.7333 11.5914 8.36971 13.2977 6.62291 15.483C6.24041 15.9597 5.66708 16.2372 5.05124 16.2447L2.01874 16.283H2.01041C1.72124 16.283 1.46958 16.0847 1.40208 15.8022L0.719578 12.9097C0.578744 12.3105 0.718744 11.6922 1.10291 11.2122L8.95291 1.39387C8.95624 1.39054 8.95875 1.38637 8.96208 1.38304C9.82291 0.353869 11.3796 0.202202 12.4296 1.0447ZM8.07768 4.48917L2.07874 11.993C1.93624 12.1714 1.88374 12.4014 1.93624 12.6222L2.50374 15.0264L5.03624 14.9947C5.27708 14.9922 5.49958 14.8847 5.64708 14.7014C6.40665 13.751 7.36129 12.5566 8.34279 11.3284L8.69004 10.8938L9.03788 10.4585C9.95837 9.30657 10.8677 8.16839 11.6286 7.21572L8.07768 4.48917ZM9.92458 2.18054L8.85852 3.5125L12.4092 6.23827C13.0926 5.38225 13.5422 4.81845 13.5837 4.7647C13.7204 4.54304 13.7737 4.2297 13.7021 3.92804C13.6287 3.61887 13.4362 3.35637 13.1587 3.18887C13.0996 3.14804 11.6954 2.05804 11.6521 2.02387C11.1237 1.60054 10.3529 1.67387 9.92458 2.18054Z" fill="#575757"/>
</svg>
