<svg width="40" height="40" viewBox="0 0 40 40" fill="none" xmlns="http://www.w3.org/2000/svg">
<rect width="40" height="40" rx="14.5455" fill="#F2F0F6"/>
<path d="M17.0009 10C14.3809 10 12.2509 12.13 12.2509 14.75C12.2509 17.32 14.2609 19.4 16.8809 19.49C16.9609 19.48 17.0409 19.48 17.1009 19.49C17.1209 19.49 17.1309 19.49 17.1509 19.49C17.1609 19.49 17.1609 19.49 17.1709 19.49C19.7309 19.4 21.7409 17.32 21.7509 14.75C21.7509 12.13 19.6209 10 17.0009 10Z" fill="#727586"/>
<path d="M22.0809 22.15C19.2909 20.29 14.7409 20.29 11.9309 22.15C10.6609 23 9.96094 24.15 9.96094 25.38C9.96094 26.61 10.6609 27.75 11.9209 28.59C13.3209 29.53 15.1609 30 17.0009 30C18.8409 30 20.6809 29.53 22.0809 28.59C23.3409 27.74 24.0409 26.6 24.0409 25.36C24.0309 24.13 23.3409 22.99 22.0809 22.15Z" fill="#727586"/>
<path d="M27.9909 15.34C28.1509 17.28 26.7709 18.98 24.8609 19.21C24.8509 19.21 24.8509 19.21 24.8409 19.21H24.8109C24.7509 19.21 24.6909 19.21 24.6409 19.23C23.6709 19.28 22.7809 18.97 22.1109 18.4C23.1409 17.48 23.7309 16.1 23.6109 14.6C23.5409 13.79 23.2609 13.05 22.8409 12.42C23.2209 12.23 23.6609 12.11 24.1109 12.07C26.0709 11.9 27.8209 13.36 27.9909 15.34Z" fill="#727586"/>
<path d="M29.9909 24.59C29.9109 25.56 29.2909 26.4 28.2509 26.97C27.2509 27.52 25.9909 27.78 24.7409 27.75C25.4609 27.1 25.8809 26.29 25.9609 25.43C26.0609 24.19 25.4709 23 24.2909 22.05C23.6209 21.52 22.8409 21.1 21.9909 20.79C24.2009 20.15 26.9809 20.58 28.6909 21.96C29.6109 22.7 30.0809 23.63 29.9909 24.59Z" fill="#727586"/>
</svg>
