<svg width="40" height="40" viewBox="0 0 40 40" fill="none" xmlns="http://www.w3.org/2000/svg">
<rect width="40" height="40" rx="14.5455" fill="#F2F0F6"/>
<path d="M26.75 16V18.1C26.31 18.04 25.81 18.01 25.25 18V16C25.25 12.85 24.36 10.75 20 10.75C15.64 10.75 14.75 12.85 14.75 16V18C14.19 18.01 13.69 18.04 13.25 18.1V16C13.25 13.1 13.95 9.25 20 9.25C26.05 9.25 26.75 13.1 26.75 16Z" fill="#727586"/>
<path d="M26.75 18.1C26.31 18.04 25.81 18.01 25.25 18H14.75C14.19 18.01 13.69 18.04 13.25 18.1C10.7 18.41 10 19.66 10 23V25C10 29 11 30 15 30H25C29 30 30 29 30 25V23C30 19.66 29.3 18.41 26.75 18.1ZM16.71 24.71C16.52 24.89 16.26 25 16 25C15.87 25 15.74 24.97 15.62 24.92C15.49 24.87 15.39 24.8 15.29 24.71C15.11 24.52 15 24.26 15 24C15 23.87 15.03 23.74 15.08 23.62C15.13 23.5 15.2 23.39 15.29 23.29C15.39 23.2 15.49 23.13 15.62 23.08C15.99 22.92 16.43 23.01 16.71 23.29C16.8 23.39 16.87 23.5 16.92 23.62C16.97 23.74 17 23.87 17 24C17 24.26 16.89 24.52 16.71 24.71ZM20.92 24.38C20.87 24.5 20.8 24.61 20.71 24.71C20.52 24.89 20.26 25 20 25C19.73 25 19.48 24.89 19.29 24.71C19.2 24.61 19.13 24.5 19.08 24.38C19.03 24.26 19 24.13 19 24C19 23.73 19.11 23.48 19.29 23.29C19.66 22.92 20.33 22.92 20.71 23.29C20.89 23.48 21 23.73 21 24C21 24.13 20.97 24.26 20.92 24.38ZM24.71 24.71C24.52 24.89 24.26 25 24 25C23.74 25 23.48 24.89 23.29 24.71C23.11 24.52 23 24.27 23 24C23 23.73 23.11 23.48 23.29 23.29C23.67 22.92 24.34 22.92 24.71 23.29C24.75 23.34 24.79 23.39 24.83 23.45C24.87 23.5 24.9 23.56 24.92 23.62C24.95 23.68 24.97 23.74 24.98 23.8C24.99 23.87 25 23.94 25 24C25 24.26 24.89 24.52 24.71 24.71Z" fill="#727586"/>
</svg>
